0
SECTION
2
HEADER
9
$INSUNITS
70
4
0
ENDSEC
0
SECTION
2
TABLES
0
TABLE
2
LTYPE
0
LTYPE
72
65
70
64
2
CONTINUOUS
3
______
73
0
40
0
0
ENDTAB
0
TABLE
2
LAYER
0
ENDTAB
0
ENDSEC
0
SECTION
2
ENTITIES
0
LINE
8
0
10
50.65
20
-2.525
11
63.65
21
-2.525
0
LINE
8
0
10
50.65
20
-16.525
11
63.65
21
-16.525
0
LINE
8
0
10
50.15
20
-3.025
11
50.15
21
-16.025
0
LINE
8
0
10
64.15
20
-3.025
11
64.15
21
-16.025
0
ARC
8
0
10
50.65
20
-3.025
40
0.5
50
90
51
180
0
ARC
8
0
10
63.65
20
-3.025
40
0.5
50
0
51
90
0
ARC
8
0
10
50.65
20
-16.025
40
0.5
50
180
51
270
0
ARC
8
0
10
63.65
20
-16.025
40
0.5
50
270
51
0
0
LINE
8
0
10
69.7
20
-2.525
11
82.7
21
-2.525
0
LINE
8
0
10
69.7
20
-16.525
11
82.7
21
-16.525
0
LINE
8
0
10
69.2
20
-3.025
11
69.2
21
-16.025
0
LINE
8
0
10
83.2
20
-3.025
11
83.2
21
-16.025
0
ARC
8
0
10
69.7
20
-3.025
40
0.5
50
90
51
180
0
ARC
8
0
10
82.7
20
-3.025
40
0.5
50
0
51
90
0
ARC
8
0
10
69.7
20
-16.025
40
0.5
50
180
51
270
0
ARC
8
0
10
82.7
20
-16.025
40
0.5
50
270
51
0
0
LINE
8
0
10
88.75
20
-2.525
11
101.75
21
-2.525
0
LINE
8
0
10
88.75
20
-16.525
11
101.75
21
-16.525
0
LINE
8
0
10
88.25
20
-3.025
11
88.25
21
-16.025
0
LINE
8
0
10
102.25
20
-3.025
11
102.25
21
-16.025
0
ARC
8
0
10
88.75
20
-3.025
40
0.5
50
90
51
180
0
ARC
8
0
10
101.75
20
-3.025
40
0.5
50
0
51
90
0
ARC
8
0
10
88.75
20
-16.025
40
0.5
50
180
51
270
0
ARC
8
0
10
101.75
20
-16.025
40
0.5
50
270
51
0
0
LINE
8
0
10
107.8
20
-2.525
11
120.8
21
-2.525
0
LINE
8
0
10
107.8
20
-16.525
11
120.8
21
-16.525
0
LINE
8
0
10
107.3
20
-3.025
11
107.3
21
-16.025
0
LINE
8
0
10
121.3
20
-3.025
11
121.3
21
-16.025
0
ARC
8
0
10
107.8
20
-3.025
40
0.5
50
90
51
180
0
ARC
8
0
10
120.8
20
-3.025
40
0.5
50
0
51
90
0
ARC
8
0
10
107.8
20
-16.025
40
0.5
50
180
51
270
0
ARC
8
0
10
120.8
20
-16.025
40
0.5
50
270
51
0
0
LINE
8
0
10
126.85
20
-2.525
11
139.85
21
-2.525
0
LINE
8
0
10
126.85
20
-16.525
11
139.85
21
-16.525
0
LINE
8
0
10
126.35
20
-3.025
11
126.35
21
-16.025
0
LINE
8
0
10
140.35
20
-3.025
11
140.35
21
-16.025
0
ARC
8
0
10
126.85
20
-3.025
40
0.5
50
90
51
180
0
ARC
8
0
10
139.85
20
-3.025
40
0.5
50
0
51
90
0
ARC
8
0
10
126.85
20
-16.025
40
0.5
50
180
51
270
0
ARC
8
0
10
139.85
20
-16.025
40
0.5
50
270
51
0
0
LINE
8
0
10
145.9
20
-2.525
11
158.9
21
-2.525
0
LINE
8
0
10
145.9
20
-16.525
11
158.9
21
-16.525
0
LINE
8
0
10
145.4
20
-3.025
11
145.4
21
-16.025
0
LINE
8
0
10
159.4
20
-3.025
11
159.4
21
-16.025
0
ARC
8
0
10
145.9
20
-3.025
40
0.5
50
90
51
180
0
ARC
8
0
10
158.9
20
-3.025
40
0.5
50
0
51
90
0
ARC
8
0
10
145.9
20
-16.025
40
0.5
50
180
51
270
0
ARC
8
0
10
158.9
20
-16.025
40
0.5
50
270
51
0
0
LINE
8
0
10
164.95
20
-2.525
11
177.95
21
-2.525
0
LINE
8
0
10
164.95
20
-16.525
11
177.95
21
-16.525
0
LINE
8
0
10
164.45
20
-3.025
11
164.45
21
-16.025
0
LINE
8
0
10
178.45
20
-3.025
11
178.45
21
-16.025
0
ARC
8
0
10
164.95
20
-3.025
40
0.5
50
90
51
180
0
ARC
8
0
10
177.95
20
-3.025
40
0.5
50
0
51
90
0
ARC
8
0
10
164.95
20
-16.025
40
0.5
50
180
51
270
0
ARC
8
0
10
177.95
20
-16.025
40
0.5
50
270
51
0
0
LINE
8
0
10
55.4125
20
-21.575
11
68.4125
21
-21.575
0
LINE
8
0
10
55.4125
20
-35.575
11
68.4125
21
-35.575
0
LINE
8
0
10
54.9125
20
-22.075
11
54.9125
21
-35.075
0
LINE
8
0
10
68.9125
20
-22.075
11
68.9125
21
-35.075
0
ARC
8
0
10
55.4125
20
-22.075
40
0.5
50
90
51
180
0
ARC
8
0
10
68.4125
20
-22.075
40
0.5
50
0
51
90
0
ARC
8
0
10
55.4125
20
-35.075
40
0.5
50
180
51
270
0
ARC
8
0
10
68.4125
20
-35.075
40
0.5
50
270
51
0
0
LINE
8
0
10
79.225
20
-21.575
11
92.225
21
-21.575
0
LINE
8
0
10
79.225
20
-35.575
11
92.225
21
-35.575
0
LINE
8
0
10
78.725
20
-22.075
11
78.725
21
-35.075
0
LINE
8
0
10
92.725
20
-22.075
11
92.725
21
-35.075
0
ARC
8
0
10
79.225
20
-22.075
40
0.5
50
90
51
180
0
ARC
8
0
10
92.225
20
-22.075
40
0.5
50
0
51
90
0
ARC
8
0
10
79.225
20
-35.075
40
0.5
50
180
51
270
0
ARC
8
0
10
92.225
20
-35.075
40
0.5
50
270
51
0
0
LINE
8
0
10
98.275
20
-21.575
11
111.275
21
-21.575
0
LINE
8
0
10
98.275
20
-35.575
11
111.275
21
-35.575
0
LINE
8
0
10
97.775
20
-22.075
11
97.775
21
-35.075
0
LINE
8
0
10
111.775
20
-22.075
11
111.775
21
-35.075
0
ARC
8
0
10
98.275
20
-22.075
40
0.5
50
90
51
180
0
ARC
8
0
10
111.275
20
-22.075
40
0.5
50
0
51
90
0
ARC
8
0
10
98.275
20
-35.075
40
0.5
50
180
51
270
0
ARC
8
0
10
111.275
20
-35.075
40
0.5
50
270
51
0
0
LINE
8
0
10
117.325
20
-21.575
11
130.325
21
-21.575
0
LINE
8
0
10
117.325
20
-35.575
11
130.325
21
-35.575
0
LINE
8
0
10
116.825
20
-22.075
11
116.825
21
-35.075
0
LINE
8
0
10
130.825
20
-22.075
11
130.825
21
-35.075
0
ARC
8
0
10
117.325
20
-22.075
40
0.5
50
90
51
180
0
ARC
8
0
10
130.325
20
-22.075
40
0.5
50
0
51
90
0
ARC
8
0
10
117.325
20
-35.075
40
0.5
50
180
51
270
0
ARC
8
0
10
130.325
20
-35.075
40
0.5
50
270
51
0
0
LINE
8
0
10
136.375
20
-21.575
11
149.375
21
-21.575
0
LINE
8
0
10
136.375
20
-35.575
11
149.375
21
-35.575
0
LINE
8
0
10
135.875
20
-22.075
11
135.875
21
-35.075
0
LINE
8
0
10
149.875
20
-22.075
11
149.875
21
-35.075
0
ARC
8
0
10
136.375
20
-22.075
40
0.5
50
90
51
180
0
ARC
8
0
10
149.375
20
-22.075
40
0.5
50
0
51
90
0
ARC
8
0
10
136.375
20
-35.075
40
0.5
50
180
51
270
0
ARC
8
0
10
149.375
20
-35.075
40
0.5
50
270
51
0
0
LINE
8
0
10
155.425
20
-21.575
11
168.425
21
-21.575
0
LINE
8
0
10
155.425
20
-35.575
11
168.425
21
-35.575
0
LINE
8
0
10
154.925
20
-22.075
11
154.925
21
-35.075
0
LINE
8
0
10
168.925
20
-22.075
11
168.925
21
-35.075
0
ARC
8
0
10
155.425
20
-22.075
40
0.5
50
90
51
180
0
ARC
8
0
10
168.425
20
-22.075
40
0.5
50
0
51
90
0
ARC
8
0
10
155.425
20
-35.075
40
0.5
50
180
51
270
0
ARC
8
0
10
168.425
20
-35.075
40
0.5
50
270
51
0
0
LINE
8
0
10
57.79375
20
-40.625
11
70.79375
21
-40.625
0
LINE
8
0
10
57.79375
20
-54.625
11
70.79375
21
-54.625
0
LINE
8
0
10
57.29375
20
-41.125
11
57.29375
21
-54.125
0
LINE
8
0
10
71.29375
20
-41.125
11
71.29375
21
-54.125
0
ARC
8
0
10
57.79375
20
-41.125
40
0.5
50
90
51
180
0
ARC
8
0
10
70.79375
20
-41.125
40
0.5
50
0
51
90
0
ARC
8
0
10
57.79375
20
-54.125
40
0.5
50
180
51
270
0
ARC
8
0
10
70.79375
20
-54.125
40
0.5
50
270
51
0
0
LINE
8
0
10
83.9875
20
-40.625
11
96.9875
21
-40.625
0
LINE
8
0
10
83.9875
20
-54.625
11
96.9875
21
-54.625
0
LINE
8
0
10
83.4875
20
-41.125
11
83.4875
21
-54.125
0
LINE
8
0
10
97.4875
20
-41.125
11
97.4875
21
-54.125
0
ARC
8
0
10
83.9875
20
-41.125
40
0.5
50
90
51
180
0
ARC
8
0
10
96.9875
20
-41.125
40
0.5
50
0
51
90
0
ARC
8
0
10
83.9875
20
-54.125
40
0.5
50
180
51
270
0
ARC
8
0
10
96.9875
20
-54.125
40
0.5
50
270
51
0
0
LINE
8
0
10
103.0375
20
-40.625
11
116.0375
21
-40.625
0
LINE
8
0
10
103.0375
20
-54.625
11
116.0375
21
-54.625
0
LINE
8
0
10
102.5375
20
-41.125
11
102.5375
21
-54.125
0
LINE
8
0
10
116.5375
20
-41.125
11
116.5375
21
-54.125
0
ARC
8
0
10
103.0375
20
-41.125
40
0.5
50
90
51
180
0
ARC
8
0
10
116.0375
20
-41.125
40
0.5
50
0
51
90
0
ARC
8
0
10
103.0375
20
-54.125
40
0.5
50
180
51
270
0
ARC
8
0
10
116.0375
20
-54.125
40
0.5
50
270
51
0
0
LINE
8
0
10
122.0875
20
-40.625
11
135.0875
21
-40.625
0
LINE
8
0
10
122.0875
20
-54.625
11
135.0875
21
-54.625
0
LINE
8
0
10
121.5875
20
-41.125
11
121.5875
21
-54.125
0
LINE
8
0
10
135.5875
20
-41.125
11
135.5875
21
-54.125
0
ARC
8
0
10
122.0875
20
-41.125
40
0.5
50
90
51
180
0
ARC
8
0
10
135.0875
20
-41.125
40
0.5
50
0
51
90
0
ARC
8
0
10
122.0875
20
-54.125
40
0.5
50
180
51
270
0
ARC
8
0
10
135.0875
20
-54.125
40
0.5
50
270
51
0
0
LINE
8
0
10
141.1375
20
-40.625
11
154.1375
21
-40.625
0
LINE
8
0
10
141.1375
20
-54.625
11
154.1375
21
-54.625
0
LINE
8
0
10
140.6375
20
-41.125
11
140.6375
21
-54.125
0
LINE
8
0
10
154.6375
20
-41.125
11
154.6375
21
-54.125
0
ARC
8
0
10
141.1375
20
-41.125
40
0.5
50
90
51
180
0
ARC
8
0
10
154.1375
20
-41.125
40
0.5
50
0
51
90
0
ARC
8
0
10
141.1375
20
-54.125
40
0.5
50
180
51
270
0
ARC
8
0
10
154.1375
20
-54.125
40
0.5
50
270
51
0
0
LINE
8
0
10
160.1875
20
-40.625
11
173.1875
21
-40.625
0
LINE
8
0
10
160.1875
20
-54.625
11
173.1875
21
-54.625
0
LINE
8
0
10
159.6875
20
-41.125
11
159.6875
21
-54.125
0
LINE
8
0
10
173.6875
20
-41.125
11
173.6875
21
-54.125
0
ARC
8
0
10
160.1875
20
-41.125
40
0.5
50
90
51
180
0
ARC
8
0
10
173.1875
20
-41.125
40
0.5
50
0
51
90
0
ARC
8
0
10
160.1875
20
-54.125
40
0.5
50
180
51
270
0
ARC
8
0
10
173.1875
20
-54.125
40
0.5
50
270
51
0
0
LINE
8
0
10
53.03125
20
-59.675
11
66.03125
21
-59.675
0
LINE
8
0
10
53.03125
20
-73.675
11
66.03125
21
-73.675
0
LINE
8
0
10
52.53125
20
-60.175
11
52.53125
21
-73.175
0
LINE
8
0
10
66.53125
20
-60.175
11
66.53125
21
-73.175
0
ARC
8
0
10
53.03125
20
-60.175
40
0.5
50
90
51
180
0
ARC
8
0
10
66.03125
20
-60.175
40
0.5
50
0
51
90
0
ARC
8
0
10
53.03125
20
-73.175
40
0.5
50
180
51
270
0
ARC
8
0
10
66.03125
20
-73.175
40
0.5
50
270
51
0
0
LINE
8
0
10
74.4625
20
-59.675
11
87.4625
21
-59.675
0
LINE
8
0
10
74.4625
20
-73.675
11
87.4625
21
-73.675
0
LINE
8
0
10
73.9625
20
-60.175
11
73.9625
21
-73.175
0
LINE
8
0
10
87.9625
20
-60.175
11
87.9625
21
-73.175
0
ARC
8
0
10
74.4625
20
-60.175
40
0.5
50
90
51
180
0
ARC
8
0
10
87.4625
20
-60.175
40
0.5
50
0
51
90
0
ARC
8
0
10
74.4625
20
-73.175
40
0.5
50
180
51
270
0
ARC
8
0
10
87.4625
20
-73.175
40
0.5
50
270
51
0
0
LINE
8
0
10
93.5125
20
-59.675
11
106.5125
21
-59.675
0
LINE
8
0
10
93.5125
20
-73.675
11
106.5125
21
-73.675
0
LINE
8
0
10
93.0125
20
-60.175
11
93.0125
21
-73.175
0
LINE
8
0
10
107.0125
20
-60.175
11
107.0125
21
-73.175
0
ARC
8
0
10
93.5125
20
-60.175
40
0.5
50
90
51
180
0
ARC
8
0
10
106.5125
20
-60.175
40
0.5
50
0
51
90
0
ARC
8
0
10
93.5125
20
-73.175
40
0.5
50
180
51
270
0
ARC
8
0
10
106.5125
20
-73.175
40
0.5
50
270
51
0
0
LINE
8
0
10
112.5625
20
-59.675
11
125.5625
21
-59.675
0
LINE
8
0
10
112.5625
20
-73.675
11
125.5625
21
-73.675
0
LINE
8
0
10
112.0625
20
-60.175
11
112.0625
21
-73.175
0
LINE
8
0
10
126.0625
20
-60.175
11
126.0625
21
-73.175
0
ARC
8
0
10
112.5625
20
-60.175
40
0.5
50
90
51
180
0
ARC
8
0
10
125.5625
20
-60.175
40
0.5
50
0
51
90
0
ARC
8
0
10
112.5625
20
-73.175
40
0.5
50
180
51
270
0
ARC
8
0
10
125.5625
20
-73.175
40
0.5
50
270
51
0
0
LINE
8
0
10
131.6125
20
-59.675
11
144.6125
21
-59.675
0
LINE
8
0
10
131.6125
20
-73.675
11
144.6125
21
-73.675
0
LINE
8
0
10
131.1125
20
-60.175
11
131.1125
21
-73.175
0
LINE
8
0
10
145.1125
20
-60.175
11
145.1125
21
-73.175
0
ARC
8
0
10
131.6125
20
-60.175
40
0.5
50
90
51
180
0
ARC
8
0
10
144.6125
20
-60.175
40
0.5
50
0
51
90
0
ARC
8
0
10
131.6125
20
-73.175
40
0.5
50
180
51
270
0
ARC
8
0
10
144.6125
20
-73.175
40
0.5
50
270
51
0
0
LINE
8
0
10
150.6625
20
-59.675
11
163.6625
21
-59.675
0
LINE
8
0
10
150.6625
20
-73.675
11
163.6625
21
-73.675
0
LINE
8
0
10
150.1625
20
-60.175
11
150.1625
21
-73.175
0
LINE
8
0
10
164.1625
20
-60.175
11
164.1625
21
-73.175
0
ARC
8
0
10
150.6625
20
-60.175
40
0.5
50
90
51
180
0
ARC
8
0
10
163.6625
20
-60.175
40
0.5
50
0
51
90
0
ARC
8
0
10
150.6625
20
-73.175
40
0.5
50
180
51
270
0
ARC
8
0
10
163.6625
20
-73.175
40
0.5
50
270
51
0
0
LINE
8
0
10
169.7125
20
-59.675
11
182.7125
21
-59.675
0
LINE
8
0
10
169.7125
20
-73.675
11
182.7125
21
-73.675
0
LINE
8
0
10
169.2125
20
-60.175
11
169.2125
21
-73.175
0
LINE
8
0
10
183.2125
20
-60.175
11
183.2125
21
-73.175
0
ARC
8
0
10
169.7125
20
-60.175
40
0.5
50
90
51
180
0
ARC
8
0
10
182.7125
20
-60.175
40
0.5
50
0
51
90
0
ARC
8
0
10
169.7125
20
-73.175
40
0.5
50
180
51
270
0
ARC
8
0
10
182.7125
20
-73.175
40
0.5
50
270
51
0
0
LINE
8
0
10
53.03125
20
-78.725
11
66.03125
21
-78.725
0
LINE
8
0
10
53.03125
20
-92.725
11
66.03125
21
-92.725
0
LINE
8
0
10
52.53125
20
-79.225
11
52.53125
21
-92.225
0
LINE
8
0
10
66.53125
20
-79.225
11
66.53125
21
-92.225
0
ARC
8
0
10
53.03125
20
-79.225
40
0.5
50
90
51
180
0
ARC
8
0
10
66.03125
20
-79.225
40
0.5
50
0
51
90
0
ARC
8
0
10
53.03125
20
-92.225
40
0.5
50
180
51
270
0
ARC
8
0
10
66.03125
20
-92.225
40
0.5
50
270
51
0
0
LINE
8
0
10
76.84375
20
-78.725
11
89.84375
21
-78.725
0
LINE
8
0
10
76.84375
20
-92.725
11
89.84375
21
-92.725
0
LINE
8
0
10
76.34375
20
-79.225
11
76.34375
21
-92.225
0
LINE
8
0
10
90.34375
20
-79.225
11
90.34375
21
-92.225
0
ARC
8
0
10
76.84375
20
-79.225
40
0.5
50
90
51
180
0
ARC
8
0
10
89.84375
20
-79.225
40
0.5
50
0
51
90
0
ARC
8
0
10
76.84375
20
-92.225
40
0.5
50
180
51
270
0
ARC
8
0
10
89.84375
20
-92.225
40
0.5
50
270
51
0
0
LINE
8
0
10
100.65625
20
-78.725
11
113.65625
21
-78.725
0
LINE
8
0
10
100.65625
20
-92.725
11
113.65625
21
-92.725
0
LINE
8
0
10
100.15625
20
-79.225
11
100.15625
21
-92.225
0
LINE
8
0
10
114.15625
20
-79.225
11
114.15625
21
-92.225
0
ARC
8
0
10
100.65625
20
-79.225
40
0.5
50
90
51
180
0
ARC
8
0
10
113.65625
20
-79.225
40
0.5
50
0
51
90
0
ARC
8
0
10
100.65625
20
-92.225
40
0.5
50
180
51
270
0
ARC
8
0
10
113.65625
20
-92.225
40
0.5
50
270
51
0
0
LINE
8
0
10
124.46875
20
-78.725
11
137.46875
21
-78.725
0
LINE
8
0
10
124.46875
20
-92.725
11
137.46875
21
-92.725
0
LINE
8
0
10
123.96875
20
-79.225
11
123.96875
21
-92.225
0
LINE
8
0
10
137.96875
20
-79.225
11
137.96875
21
-92.225
0
ARC
8
0
10
124.46875
20
-79.225
40
0.5
50
90
51
180
0
ARC
8
0
10
137.46875
20
-79.225
40
0.5
50
0
51
90
0
ARC
8
0
10
124.46875
20
-92.225
40
0.5
50
180
51
270
0
ARC
8
0
10
137.46875
20
-92.225
40
0.5
50
270
51
0
0
LINE
8
0
10
157.80625
20
-78.725
11
170.80625
21
-78.725
0
LINE
8
0
10
157.80625
20
-92.725
11
170.80625
21
-92.725
0
LINE
8
0
10
157.30625
20
-79.225
11
157.30625
21
-92.225
0
LINE
8
0
10
171.30625
20
-79.225
11
171.30625
21
-92.225
0
ARC
8
0
10
157.80625
20
-79.225
40
0.5
50
90
51
180
0
ARC
8
0
10
170.80625
20
-79.225
40
0.5
50
0
51
90
0
ARC
8
0
10
157.80625
20
-92.225
40
0.5
50
180
51
270
0
ARC
8
0
10
170.80625
20
-92.225
40
0.5
50
270
51
0
0
LINE
8
0
10
149.36825
20
-79.725
11
155.36825
21
-79.725
0
LINE
8
0
10
149.36825
20
-94.725
11
155.36825
21
-94.725
0
LINE
8
0
10
148.86825
20
-80.225
11
148.86825
21
-94.225
0
LINE
8
0
10
155.86825
20
-80.225
11
155.86825
21
-94.225
0
ARC
8
0
10
149.36825
20
-80.225
40
0.5
50
90
51
180
0
ARC
8
0
10
155.36825
20
-80.225
40
0.5
50
0
51
90
0
ARC
8
0
10
149.36825
20
-94.225
40
0.5
50
180
51
270
0
ARC
8
0
10
155.36825
20
-94.225
40
0.5
50
270
51
0
0
LINE
8
0
10
173.24425
20
-79.725
11
179.24425
21
-79.725
0
LINE
8
0
10
173.24425
20
-94.725
11
179.24425
21
-94.725
0
LINE
8
0
10
172.74425
20
-80.225
11
172.74425
21
-94.225
0
LINE
8
0
10
179.74425
20
-80.225
11
179.74425
21
-94.225
0
ARC
8
0
10
173.24425
20
-80.225
40
0.5
50
90
51
180
0
ARC
8
0
10
179.24425
20
-80.225
40
0.5
50
0
51
90
0
ARC
8
0
10
173.24425
20
-94.225
40
0.5
50
180
51
270
0
ARC
8
0
10
179.24425
20
-94.225
40
0.5
50
270
51
0
0
LINE
8
0
10
47.625
20
-95.25
11
185.7375
21
-95.25
0
LINE
8
0
10
47.625
20
0
11
185.7375
21
0
0
LINE
8
0
10
47.625
20
-95.25
11
47.625
21
0
0
LINE
8
0
10
185.7375
20
-95.25
11
185.7375
21
0
0
ENDSEC
0
EOF