<svg width="138.113mm" height="95.25mm" viewBox="0 0 138.113 95.25" xmlns="http://www.w3.org/2000/svg"><g id="svgGroup" stroke-linecap="round" fill-rule="evenodd" font-size="9pt" stroke="#000" stroke-width="0.25mm" fill="none" style="stroke:#000;stroke-width:0.25mm;fill:none"><path d="M 0 95.25 L 138.113 95.25 L 138.113 0 L 0 0 L 0 95.25 Z M 31.6 21.575 L 44.6 21.575 A 0.5 0.5 0 0 1 45.1 22.075 L 45.1 35.075 A 0.5 0.5 0 0 1 44.6 35.575 L 31.6 35.575 A 0.5 0.5 0 0 1 31.1 35.075 L 31.1 22.075 A 0.5 0.5 0 0 1 31.6 21.575 Z M 50.65 21.575 L 63.65 21.575 A 0.5 0.5 0 0 1 64.15 22.075 L 64.15 35.075 A 0.5 0.5 0 0 1 63.65 35.575 L 50.65 35.575 A 0.5 0.5 0 0 1 50.15 35.075 L 50.15 22.075 A 0.5 0.5 0 0 1 50.65 21.575 Z M 88.75 21.575 L 101.75 21.575 A 0.5 0.5 0 0 1 102.25 22.075 L 102.25 35.075 A 0.5 0.5 0 0 1 101.75 35.575 L 88.75 35.575 A 0.5 0.5 0 0 1 88.25 35.075 L 88.25 22.075 A 0.5 0.5 0 0 1 88.75 21.575 Z M 107.8 21.575 L 120.8 21.575 A 0.5 0.5 0 0 1 121.3 22.075 L 121.3 35.075 A 0.5 0.5 0 0 1 120.8 35.575 L 107.8 35.575 A 0.5 0.5 0 0 1 107.3 35.075 L 107.3 22.075 A 0.5 0.5 0 0 1 107.8 21.575 Z M 10.169 40.625 L 23.169 40.625 A 0.5 0.5 0 0 1 23.669 41.125 L 23.669 54.125 A 0.5 0.5 0 0 1 23.169 54.625 L 10.169 54.625 A 0.5 0.5 0 0 1 9.669 54.125 L 9.669 41.125 A 0.5 0.5 0 0 1 10.169 40.625 Z M 36.363 40.625 L 49.363 40.625 A 0.5 0.5 0 0 1 49.863 41.125 L 49.863 54.125 A 0.5 0.5 0 0 1 49.363 54.625 L 36.363 54.625 A 0.5 0.5 0 0 1 35.863 54.125 L 35.863 41.125 A 0.5 0.5 0 0 1 36.363 40.625 Z M 55.412 40.625 L 68.413 40.625 A 0.5 0.5 0 0 1 68.913 41.125 L 68.913 54.125 A 0.5 0.5 0 0 1 68.413 54.625 L 55.412 54.625 A 0.5 0.5 0 0 1 54.912 54.125 L 54.912 41.125 A 0.5 0.5 0 0 1 55.412 40.625 Z M 74.463 40.625 L 87.463 40.625 A 0.5 0.5 0 0 1 87.963 41.125 L 87.963 54.125 A 0.5 0.5 0 0 1 87.463 54.625 L 74.463 54.625 A 0.5 0.5 0 0 1 73.963 54.125 L 73.963 41.125 A 0.5 0.5 0 0 1 74.463 40.625 Z M 93.512 40.625 L 106.512 40.625 A 0.5 0.5 0 0 1 107.012 41.125 L 107.012 54.125 A 0.5 0.5 0 0 1 106.512 54.625 L 93.512 54.625 A 0.5 0.5 0 0 1 93.012 54.125 L 93.012 41.125 A 0.5 0.5 0 0 1 93.512 40.625 Z M 112.563 40.625 L 125.563 40.625 A 0.5 0.5 0 0 1 126.063 41.125 L 126.063 54.125 A 0.5 0.5 0 0 1 125.563 54.625 L 112.563 54.625 A 0.5 0.5 0 0 1 112.063 54.125 L 112.063 41.125 A 0.5 0.5 0 0 1 112.563 40.625 Z M 5.406 59.675 L 18.406 59.675 A 0.5 0.5 0 0 1 18.906 60.175 L 18.906 73.175 A 0.5 0.5 0 0 1 18.406 73.675 L 5.406 73.675 A 0.5 0.5 0 0 1 4.906 73.175 L 4.906 60.175 A 0.5 0.5 0 0 1 5.406 59.675 Z M 26.838 59.675 L 39.838 59.675 A 0.5 0.5 0 0 1 40.338 60.175 L 40.338 73.175 A 0.5 0.5 0 0 1 39.838 73.675 L 26.838 73.675 A 0.5 0.5 0 0 1 26.338 73.175 L 26.338 60.175 A 0.5 0.5 0 0 1 26.838 59.675 Z M 45.888 59.675 L 58.888 59.675 A 0.5 0.5 0 0 1 59.388 60.175 L 59.388 73.175 A 0.5 0.5 0 0 1 58.888 73.675 L 45.888 73.675 A 0.5 0.5 0 0 1 45.388 73.175 L 45.388 60.175 A 0.5 0.5 0 0 1 45.888 59.675 Z M 64.938 59.675 L 77.938 59.675 A 0.5 0.5 0 0 1 78.438 60.175 L 78.438 73.175 A 0.5 0.5 0 0 1 77.938 73.675 L 64.938 73.675 A 0.5 0.5 0 0 1 64.438 73.175 L 64.438 60.175 A 0.5 0.5 0 0 1 64.938 59.675 Z M 83.988 59.675 L 96.988 59.675 A 0.5 0.5 0 0 1 97.488 60.175 L 97.488 73.175 A 0.5 0.5 0 0 1 96.988 73.675 L 83.988 73.675 A 0.5 0.5 0 0 1 83.488 73.175 L 83.488 60.175 A 0.5 0.5 0 0 1 83.988 59.675 Z M 103.038 59.675 L 116.038 59.675 A 0.5 0.5 0 0 1 116.538 60.175 L 116.538 73.175 A 0.5 0.5 0 0 1 116.038 73.675 L 103.038 73.675 A 0.5 0.5 0 0 1 102.538 73.175 L 102.538 60.175 A 0.5 0.5 0 0 1 103.038 59.675 Z M 122.088 59.675 L 135.088 59.675 A 0.5 0.5 0 0 1 135.588 60.175 L 135.588 73.175 A 0.5 0.5 0 0 1 135.088 73.675 L 122.088 73.675 A 0.5 0.5 0 0 1 121.588 73.175 L 121.588 60.175 A 0.5 0.5 0 0 1 122.088 59.675 Z M 5.406 78.725 L 18.406 78.725 A 0.5 0.5 0 0 1 18.906 79.225 L 18.906 92.225 A 0.5 0.5 0 0 1 18.406 92.725 L 5.406 92.725 A 0.5 0.5 0 0 1 4.906 92.225 L 4.906 79.225 A 0.5 0.5 0 0 1 5.406 78.725 Z M 29.219 78.725 L 42.219 78.725 A 0.5 0.5 0 0 1 42.719 79.225 L 42.719 92.225 A 0.5 0.5 0 0 1 42.219 92.725 L 29.219 92.725 A 0.5 0.5 0 0 1 28.719 92.225 L 28.719 79.225 A 0.5 0.5 0 0 1 29.219 78.725 Z M 53.031 78.725 L 66.031 78.725 A 0.5 0.5 0 0 1 66.531 79.225 L 66.531 92.225 A 0.5 0.5 0 0 1 66.031 92.725 L 53.031 92.725 A 0.5 0.5 0 0 1 52.531 92.225 L 52.531 79.225 A 0.5 0.5 0 0 1 53.031 78.725 Z M 76.844 78.725 L 89.844 78.725 A 0.5 0.5 0 0 1 90.344 79.225 L 90.344 92.225 A 0.5 0.5 0 0 1 89.844 92.725 L 76.844 92.725 A 0.5 0.5 0 0 1 76.344 92.225 L 76.344 79.225 A 0.5 0.5 0 0 1 76.844 78.725 Z M 110.181 78.725 L 123.181 78.725 A 0.5 0.5 0 0 1 123.681 79.225 L 123.681 92.225 A 0.5 0.5 0 0 1 123.181 92.725 L 110.181 92.725 A 0.5 0.5 0 0 1 109.681 92.225 L 109.681 79.225 A 0.5 0.5 0 0 1 110.181 78.725 Z M 3.025 2.525 L 16.025 2.525 A 0.5 0.5 0 0 1 16.525 3.025 L 16.525 16.025 A 0.5 0.5 0 0 1 16.025 16.525 L 3.025 16.525 A 0.5 0.5 0 0 1 2.525 16.025 L 2.525 3.025 A 0.5 0.5 0 0 1 3.025 2.525 Z M 22.075 2.525 L 35.075 2.525 A 0.5 0.5 0 0 1 35.575 3.025 L 35.575 16.025 A 0.5 0.5 0 0 1 35.075 16.525 L 22.075 16.525 A 0.5 0.5 0 0 1 21.575 16.025 L 21.575 3.025 A 0.5 0.5 0 0 1 22.075 2.525 Z M 41.125 2.525 L 54.125 2.525 A 0.5 0.5 0 0 1 54.625 3.025 L 54.625 16.025 A 0.5 0.5 0 0 1 54.125 16.525 L 41.125 16.525 A 0.5 0.5 0 0 1 40.625 16.025 L 40.625 3.025 A 0.5 0.5 0 0 1 41.125 2.525 Z M 60.175 2.525 L 73.175 2.525 A 0.5 0.5 0 0 1 73.675 3.025 L 73.675 16.025 A 0.5 0.5 0 0 1 73.175 16.525 L 60.175 16.525 A 0.5 0.5 0 0 1 59.675 16.025 L 59.675 3.025 A 0.5 0.5 0 0 1 60.175 2.525 Z M 79.225 2.525 L 92.225 2.525 A 0.5 0.5 0 0 1 92.725 3.025 L 92.725 16.025 A 0.5 0.5 0 0 1 92.225 16.525 L 79.225 16.525 A 0.5 0.5 0 0 1 78.725 16.025 L 78.725 3.025 A 0.5 0.5 0 0 1 79.225 2.525 Z M 98.275 2.525 L 111.275 2.525 A 0.5 0.5 0 0 1 111.775 3.025 L 111.775 16.025 A 0.5 0.5 0 0 1 111.275 16.525 L 98.275 16.525 A 0.5 0.5 0 0 1 97.775 16.025 L 97.775 3.025 A 0.5 0.5 0 0 1 98.275 2.525 Z M 117.325 2.525 L 130.325 2.525 A 0.5 0.5 0 0 1 130.825 3.025 L 130.825 16.025 A 0.5 0.5 0 0 1 130.325 16.525 L 117.325 16.525 A 0.5 0.5 0 0 1 116.825 16.025 L 116.825 3.025 A 0.5 0.5 0 0 1 117.325 2.525 Z M 7.788 21.575 L 20.787 21.575 A 0.5 0.5 0 0 1 21.287 22.075 L 21.287 35.075 A 0.5 0.5 0 0 1 20.787 35.575 L 7.788 35.575 A 0.5 0.5 0 0 1 7.288 35.075 L 7.288 22.075 A 0.5 0.5 0 0 1 7.788 21.575 Z M 69.7 21.575 L 82.7 21.575 A 0.5 0.5 0 0 1 83.2 22.075 L 83.2 35.075 A 0.5 0.5 0 0 1 82.7 35.575 L 69.7 35.575 A 0.5 0.5 0 0 1 69.2 35.075 L 69.2 22.075 A 0.5 0.5 0 0 1 69.7 21.575 Z M 101.743 79.725 L 107.743 79.725 A 0.5 0.5 0 0 1 108.243 80.225 L 108.243 94.225 A 0.5 0.5 0 0 1 107.743 94.725 L 101.743 94.725 A 0.5 0.5 0 0 1 101.243 94.225 L 101.243 80.225 A 0.5 0.5 0 0 1 101.743 79.725 Z M 125.619 79.725 L 131.619 79.725 A 0.5 0.5 0 0 1 132.119 80.225 L 132.119 94.225 A 0.5 0.5 0 0 1 131.619 94.725 L 125.619 94.725 A 0.5 0.5 0 0 1 125.119 94.225 L 125.119 80.225 A 0.5 0.5 0 0 1 125.619 79.725 Z" vector-effect="non-scaling-stroke"/></g></svg>