<svg width="180.975mm" height="95.25mm" viewBox="0 0 180.975 95.25" xmlns="http://www.w3.org/2000/svg"><g id="svgGroup" stroke-linecap="round" fill-rule="evenodd" font-size="9pt" stroke="#000" stroke-width="0.25mm" fill="none" style="stroke:#000;stroke-width:0.25mm;fill:none"><path d="M 0 95.25 L 180.975 95.25 L 180.975 0 L 0 0 L 0 95.25 Z M 55.412 59.675 L 68.413 59.675 A 0.5 0.5 0 0 1 68.913 60.175 L 68.913 73.175 A 0.5 0.5 0 0 1 68.413 73.675 L 55.412 73.675 A 0.5 0.5 0 0 1 54.912 73.175 L 54.912 60.175 A 0.5 0.5 0 0 1 55.412 59.675 Z M 3.025 21.575 L 16.025 21.575 A 0.5 0.5 0 0 1 16.525 22.075 L 16.525 35.075 A 0.5 0.5 0 0 1 16.025 35.575 L 3.025 35.575 A 0.5 0.5 0 0 1 2.525 35.075 L 2.525 22.075 A 0.5 0.5 0 0 1 3.025 21.575 Z M 22.075 21.575 L 35.075 21.575 A 0.5 0.5 0 0 1 35.575 22.075 L 35.575 35.075 A 0.5 0.5 0 0 1 35.075 35.575 L 22.075 35.575 A 0.5 0.5 0 0 1 21.575 35.075 L 21.575 22.075 A 0.5 0.5 0 0 1 22.075 21.575 Z M 41.125 21.575 L 54.125 21.575 A 0.5 0.5 0 0 1 54.625 22.075 L 54.625 35.075 A 0.5 0.5 0 0 1 54.125 35.575 L 41.125 35.575 A 0.5 0.5 0 0 1 40.625 35.075 L 40.625 22.075 A 0.5 0.5 0 0 1 41.125 21.575 Z M 60.175 21.575 L 73.175 21.575 A 0.5 0.5 0 0 1 73.675 22.075 L 73.675 35.075 A 0.5 0.5 0 0 1 73.175 35.575 L 60.175 35.575 A 0.5 0.5 0 0 1 59.675 35.075 L 59.675 22.075 A 0.5 0.5 0 0 1 60.175 21.575 Z M 79.225 21.575 L 92.225 21.575 A 0.5 0.5 0 0 1 92.725 22.075 L 92.725 35.075 A 0.5 0.5 0 0 1 92.225 35.575 L 79.225 35.575 A 0.5 0.5 0 0 1 78.725 35.075 L 78.725 22.075 A 0.5 0.5 0 0 1 79.225 21.575 Z M 98.275 21.575 L 111.275 21.575 A 0.5 0.5 0 0 1 111.775 22.075 L 111.775 35.075 A 0.5 0.5 0 0 1 111.275 35.575 L 98.275 35.575 A 0.5 0.5 0 0 1 97.775 35.075 L 97.775 22.075 A 0.5 0.5 0 0 1 98.275 21.575 Z M 117.325 21.575 L 130.325 21.575 A 0.5 0.5 0 0 1 130.825 22.075 L 130.825 35.075 A 0.5 0.5 0 0 1 130.325 35.575 L 117.325 35.575 A 0.5 0.5 0 0 1 116.825 35.075 L 116.825 22.075 A 0.5 0.5 0 0 1 117.325 21.575 Z M 164.95 21.575 L 177.95 21.575 A 0.5 0.5 0 0 1 178.45 22.075 L 178.45 35.075 A 0.5 0.5 0 0 1 177.95 35.575 L 164.95 35.575 A 0.5 0.5 0 0 1 164.45 35.075 L 164.45 22.075 A 0.5 0.5 0 0 1 164.95 21.575 Z M 157.019 31.6 L 157.019 44.6 A 0.5 0.5 0 0 1 156.519 45.1 L 143.519 45.1 A 0.5 0.5 0 0 1 143.019 44.6 L 143.019 31.6 A 0.5 0.5 0 0 1 143.519 31.1 L 156.519 31.1 A 0.5 0.5 0 0 1 157.019 31.6 Z M 7.787 40.625 L 20.787 40.625 A 0.5 0.5 0 0 1 21.287 41.125 L 21.287 54.125 A 0.5 0.5 0 0 1 20.787 54.625 L 7.787 54.625 A 0.5 0.5 0 0 1 7.287 54.125 L 7.287 41.125 A 0.5 0.5 0 0 1 7.787 40.625 Z M 26.838 40.625 L 39.838 40.625 A 0.5 0.5 0 0 1 40.338 41.125 L 40.338 54.125 A 0.5 0.5 0 0 1 39.838 54.625 L 26.838 54.625 A 0.5 0.5 0 0 1 26.338 54.125 L 26.338 41.125 A 0.5 0.5 0 0 1 26.838 40.625 Z M 45.887 40.625 L 58.887 40.625 A 0.5 0.5 0 0 1 59.387 41.125 L 59.387 54.125 A 0.5 0.5 0 0 1 58.887 54.625 L 45.887 54.625 A 0.5 0.5 0 0 1 45.387 54.125 L 45.387 41.125 A 0.5 0.5 0 0 1 45.887 40.625 Z M 64.938 40.625 L 77.938 40.625 A 0.5 0.5 0 0 1 78.438 41.125 L 78.438 54.125 A 0.5 0.5 0 0 1 77.938 54.625 L 64.938 54.625 A 0.5 0.5 0 0 1 64.438 54.125 L 64.438 41.125 A 0.5 0.5 0 0 1 64.938 40.625 Z M 83.988 40.625 L 96.988 40.625 A 0.5 0.5 0 0 1 97.488 41.125 L 97.488 54.125 A 0.5 0.5 0 0 1 96.988 54.625 L 83.988 54.625 A 0.5 0.5 0 0 1 83.488 54.125 L 83.488 41.125 A 0.5 0.5 0 0 1 83.988 40.625 Z M 103.038 40.625 L 116.038 40.625 A 0.5 0.5 0 0 1 116.538 41.125 L 116.538 54.125 A 0.5 0.5 0 0 1 116.038 54.625 L 103.038 54.625 A 0.5 0.5 0 0 1 102.538 54.125 L 102.538 41.125 A 0.5 0.5 0 0 1 103.038 40.625 Z M 122.087 40.625 L 135.087 40.625 A 0.5 0.5 0 0 1 135.587 41.125 L 135.587 54.125 A 0.5 0.5 0 0 1 135.087 54.625 L 122.087 54.625 A 0.5 0.5 0 0 1 121.587 54.125 L 121.587 41.125 A 0.5 0.5 0 0 1 122.087 40.625 Z M 164.95 40.625 L 177.95 40.625 A 0.5 0.5 0 0 1 178.45 41.125 L 178.45 54.125 A 0.5 0.5 0 0 1 177.95 54.625 L 164.95 54.625 A 0.5 0.5 0 0 1 164.45 54.125 L 164.45 41.125 A 0.5 0.5 0 0 1 164.95 40.625 Z M 17.313 59.675 L 30.313 59.675 A 0.5 0.5 0 0 1 30.813 60.175 L 30.813 73.175 A 0.5 0.5 0 0 1 30.313 73.675 L 17.313 73.675 A 0.5 0.5 0 0 1 16.813 73.175 L 16.813 60.175 A 0.5 0.5 0 0 1 17.313 59.675 Z M 36.363 59.675 L 49.363 59.675 A 0.5 0.5 0 0 1 49.863 60.175 L 49.863 73.175 A 0.5 0.5 0 0 1 49.363 73.675 L 36.363 73.675 A 0.5 0.5 0 0 1 35.863 73.175 L 35.863 60.175 A 0.5 0.5 0 0 1 36.363 59.675 Z M 74.462 59.675 L 87.462 59.675 A 0.5 0.5 0 0 1 87.962 60.175 L 87.962 73.175 A 0.5 0.5 0 0 1 87.462 73.675 L 74.462 73.675 A 0.5 0.5 0 0 1 73.962 73.175 L 73.962 60.175 A 0.5 0.5 0 0 1 74.462 59.675 Z M 93.512 59.675 L 106.512 59.675 A 0.5 0.5 0 0 1 107.012 60.175 L 107.012 73.175 A 0.5 0.5 0 0 1 106.512 73.675 L 93.512 73.675 A 0.5 0.5 0 0 1 93.012 73.175 L 93.012 60.175 A 0.5 0.5 0 0 1 93.512 59.675 Z M 119.706 59.675 L 132.706 59.675 A 0.5 0.5 0 0 1 133.206 60.175 L 133.206 73.175 A 0.5 0.5 0 0 1 132.706 73.675 L 119.706 73.675 A 0.5 0.5 0 0 1 119.206 73.175 L 119.206 60.175 A 0.5 0.5 0 0 1 119.706 59.675 Z M 145.9 59.675 L 158.9 59.675 A 0.5 0.5 0 0 1 159.4 60.175 L 159.4 73.175 A 0.5 0.5 0 0 1 158.9 73.675 L 145.9 73.675 A 0.5 0.5 0 0 1 145.4 73.175 L 145.4 60.175 A 0.5 0.5 0 0 1 145.9 59.675 Z M 164.95 59.675 L 177.95 59.675 A 0.5 0.5 0 0 1 178.45 60.175 L 178.45 73.175 A 0.5 0.5 0 0 1 177.95 73.675 L 164.95 73.675 A 0.5 0.5 0 0 1 164.45 73.175 L 164.45 60.175 A 0.5 0.5 0 0 1 164.95 59.675 Z M 26.838 78.725 L 39.838 78.725 A 0.5 0.5 0 0 1 40.338 79.225 L 40.338 92.225 A 0.5 0.5 0 0 1 39.838 92.725 L 26.838 92.725 A 0.5 0.5 0 0 1 26.338 92.225 L 26.338 79.225 A 0.5 0.5 0 0 1 26.838 78.725 Z M 57.794 78.725 L 70.794 78.725 A 0.5 0.5 0 0 1 71.294 79.225 L 71.294 92.225 A 0.5 0.5 0 0 1 70.794 92.725 L 57.794 92.725 A 0.5 0.5 0 0 1 57.294 92.225 L 57.294 79.225 A 0.5 0.5 0 0 1 57.794 78.725 Z M 81.606 78.725 L 94.606 78.725 A 0.5 0.5 0 0 1 95.106 79.225 L 95.106 92.225 A 0.5 0.5 0 0 1 94.606 92.725 L 81.606 92.725 A 0.5 0.5 0 0 1 81.106 92.225 L 81.106 79.225 A 0.5 0.5 0 0 1 81.606 78.725 Z M 105.419 78.725 L 118.419 78.725 A 0.5 0.5 0 0 1 118.919 79.225 L 118.919 92.225 A 0.5 0.5 0 0 1 118.419 92.725 L 105.419 92.725 A 0.5 0.5 0 0 1 104.919 92.225 L 104.919 79.225 A 0.5 0.5 0 0 1 105.419 78.725 Z M 126.85 78.725 L 139.85 78.725 A 0.5 0.5 0 0 1 140.35 79.225 L 140.35 92.225 A 0.5 0.5 0 0 1 139.85 92.725 L 126.85 92.725 A 0.5 0.5 0 0 1 126.35 92.225 L 126.35 79.225 A 0.5 0.5 0 0 1 126.85 78.725 Z M 145.9 78.725 L 158.9 78.725 A 0.5 0.5 0 0 1 159.4 79.225 L 159.4 92.225 A 0.5 0.5 0 0 1 158.9 92.725 L 145.9 92.725 A 0.5 0.5 0 0 1 145.4 92.225 L 145.4 79.225 A 0.5 0.5 0 0 1 145.9 78.725 Z M 164.95 78.725 L 177.95 78.725 A 0.5 0.5 0 0 1 178.45 79.225 L 178.45 92.225 A 0.5 0.5 0 0 1 177.95 92.725 L 164.95 92.725 A 0.5 0.5 0 0 1 164.45 92.225 L 164.45 79.225 A 0.5 0.5 0 0 1 164.95 78.725 Z M 12.55 2.525 L 25.55 2.525 A 0.5 0.5 0 0 1 26.05 3.025 L 26.05 16.025 A 0.5 0.5 0 0 1 25.55 16.525 L 12.55 16.525 A 0.5 0.5 0 0 1 12.05 16.025 L 12.05 3.025 A 0.5 0.5 0 0 1 12.55 2.525 Z M 31.6 2.525 L 44.6 2.525 A 0.5 0.5 0 0 1 45.1 3.025 L 45.1 16.025 A 0.5 0.5 0 0 1 44.6 16.525 L 31.6 16.525 A 0.5 0.5 0 0 1 31.1 16.025 L 31.1 3.025 A 0.5 0.5 0 0 1 31.6 2.525 Z M 50.65 2.525 L 63.65 2.525 A 0.5 0.5 0 0 1 64.15 3.025 L 64.15 16.025 A 0.5 0.5 0 0 1 63.65 16.525 L 50.65 16.525 A 0.5 0.5 0 0 1 50.15 16.025 L 50.15 3.025 A 0.5 0.5 0 0 1 50.65 2.525 Z M 69.7 2.525 L 82.7 2.525 A 0.5 0.5 0 0 1 83.2 3.025 L 83.2 16.025 A 0.5 0.5 0 0 1 82.7 16.525 L 69.7 16.525 A 0.5 0.5 0 0 1 69.2 16.025 L 69.2 3.025 A 0.5 0.5 0 0 1 69.7 2.525 Z M 88.75 2.525 L 101.75 2.525 A 0.5 0.5 0 0 1 102.25 3.025 L 102.25 16.025 A 0.5 0.5 0 0 1 101.75 16.525 L 88.75 16.525 A 0.5 0.5 0 0 1 88.25 16.025 L 88.25 3.025 A 0.5 0.5 0 0 1 88.75 2.525 Z M 107.8 2.525 L 120.8 2.525 A 0.5 0.5 0 0 1 121.3 3.025 L 121.3 16.025 A 0.5 0.5 0 0 1 120.8 16.525 L 107.8 16.525 A 0.5 0.5 0 0 1 107.3 16.025 L 107.3 3.025 A 0.5 0.5 0 0 1 107.8 2.525 Z M 136.375 2.525 L 149.375 2.525 A 0.5 0.5 0 0 1 149.875 3.025 L 149.875 16.025 A 0.5 0.5 0 0 1 149.375 16.525 L 136.375 16.525 A 0.5 0.5 0 0 1 135.875 16.025 L 135.875 3.025 A 0.5 0.5 0 0 1 136.375 2.525 Z M 164.95 2.525 L 177.95 2.525 A 0.5 0.5 0 0 1 178.45 3.025 L 178.45 16.025 A 0.5 0.5 0 0 1 177.95 16.525 L 164.95 16.525 A 0.5 0.5 0 0 1 164.45 16.025 L 164.45 3.025 A 0.5 0.5 0 0 1 164.95 2.525 Z M 156.019 23.162 L 156.019 29.162 A 0.5 0.5 0 0 1 155.519 29.662 L 141.519 29.662 A 0.5 0.5 0 0 1 141.019 29.162 L 141.019 23.162 A 0.5 0.5 0 0 1 141.519 22.662 L 155.519 22.662 A 0.5 0.5 0 0 1 156.019 23.162 Z M 156.019 47.038 L 156.019 53.038 A 0.5 0.5 0 0 1 155.519 53.538 L 141.519 53.538 A 0.5 0.5 0 0 1 141.019 53.038 L 141.019 47.038 A 0.5 0.5 0 0 1 141.519 46.538 L 155.519 46.538 A 0.5 0.5 0 0 1 156.019 47.038 Z M 18.4 79.725 L 24.4 79.725 A 0.5 0.5 0 0 1 24.9 80.225 L 24.9 94.225 A 0.5 0.5 0 0 1 24.4 94.725 L 18.4 94.725 A 0.5 0.5 0 0 1 17.9 94.225 L 17.9 80.225 A 0.5 0.5 0 0 1 18.4 79.725 Z M 42.275 79.725 L 48.275 79.725 A 0.5 0.5 0 0 1 48.775 80.225 L 48.775 94.225 A 0.5 0.5 0 0 1 48.275 94.725 L 42.275 94.725 A 0.5 0.5 0 0 1 41.775 94.225 L 41.775 80.225 A 0.5 0.5 0 0 1 42.275 79.725 Z M 127.937 3.525 L 133.937 3.525 A 0.5 0.5 0 0 1 134.437 4.025 L 134.437 18.025 A 0.5 0.5 0 0 1 133.937 18.525 L 127.937 18.525 A 0.5 0.5 0 0 1 127.437 18.025 L 127.437 4.025 A 0.5 0.5 0 0 1 127.937 3.525 Z M 151.813 3.525 L 157.813 3.525 A 0.5 0.5 0 0 1 158.313 4.025 L 158.313 18.025 A 0.5 0.5 0 0 1 157.813 18.525 L 151.813 18.525 A 0.5 0.5 0 0 1 151.313 18.025 L 151.313 4.025 A 0.5 0.5 0 0 1 151.813 3.525 Z" vector-effect="non-scaling-stroke"/></g></svg>