0
SECTION
2
HEADER
9
$INSUNITS
70
4
0
ENDSEC
0
SECTION
2
TABLES
0
TABLE
2
LTYPE
0
LTYPE
72
65
70
64
2
CONTINUOUS
3
______
73
0
40
0
0
ENDTAB
0
TABLE
2
LAYER
0
ENDTAB
0
ENDSEC
0
SECTION
2
ENTITIES
0
LINE
8
0
10
203.05
20
-2.525
11
216.05
21
-2.525
0
LINE
8
0
10
203.05
20
-16.525
11
216.05
21
-16.525
0
LINE
8
0
10
202.55
20
-3.025
11
202.55
21
-16.025
0
LINE
8
0
10
216.55
20
-3.025
11
216.55
21
-16.025
0
ARC
8
0
10
203.05
20
-3.025
40
0.5
50
90
51
180
0
ARC
8
0
10
216.05
20
-3.025
40
0.5
50
0
51
90
0
ARC
8
0
10
203.05
20
-16.025
40
0.5
50
180
51
270
0
ARC
8
0
10
216.05
20
-16.025
40
0.5
50
270
51
0
0
LINE
8
0
10
222.1
20
-2.525
11
235.1
21
-2.525
0
LINE
8
0
10
222.1
20
-16.525
11
235.1
21
-16.525
0
LINE
8
0
10
221.6
20
-3.025
11
221.6
21
-16.025
0
LINE
8
0
10
235.6
20
-3.025
11
235.6
21
-16.025
0
ARC
8
0
10
222.1
20
-3.025
40
0.5
50
90
51
180
0
ARC
8
0
10
235.1
20
-3.025
40
0.5
50
0
51
90
0
ARC
8
0
10
222.1
20
-16.025
40
0.5
50
180
51
270
0
ARC
8
0
10
235.1
20
-16.025
40
0.5
50
270
51
0
0
LINE
8
0
10
241.15
20
-2.525
11
254.15
21
-2.525
0
LINE
8
0
10
241.15
20
-16.525
11
254.15
21
-16.525
0
LINE
8
0
10
240.65
20
-3.025
11
240.65
21
-16.025
0
LINE
8
0
10
254.65
20
-3.025
11
254.65
21
-16.025
0
ARC
8
0
10
241.15
20
-3.025
40
0.5
50
90
51
180
0
ARC
8
0
10
254.15
20
-3.025
40
0.5
50
0
51
90
0
ARC
8
0
10
241.15
20
-16.025
40
0.5
50
180
51
270
0
ARC
8
0
10
254.15
20
-16.025
40
0.5
50
270
51
0
0
LINE
8
0
10
260.2
20
-2.525
11
273.2
21
-2.525
0
LINE
8
0
10
260.2
20
-16.525
11
273.2
21
-16.525
0
LINE
8
0
10
259.7
20
-3.025
11
259.7
21
-16.025
0
LINE
8
0
10
273.7
20
-3.025
11
273.7
21
-16.025
0
ARC
8
0
10
260.2
20
-3.025
40
0.5
50
90
51
180
0
ARC
8
0
10
273.2
20
-3.025
40
0.5
50
0
51
90
0
ARC
8
0
10
260.2
20
-16.025
40
0.5
50
180
51
270
0
ARC
8
0
10
273.2
20
-16.025
40
0.5
50
270
51
0
0
LINE
8
0
10
279.25
20
-2.525
11
292.25
21
-2.525
0
LINE
8
0
10
279.25
20
-16.525
11
292.25
21
-16.525
0
LINE
8
0
10
278.75
20
-3.025
11
278.75
21
-16.025
0
LINE
8
0
10
292.75
20
-3.025
11
292.75
21
-16.025
0
ARC
8
0
10
279.25
20
-3.025
40
0.5
50
90
51
180
0
ARC
8
0
10
292.25
20
-3.025
40
0.5
50
0
51
90
0
ARC
8
0
10
279.25
20
-16.025
40
0.5
50
180
51
270
0
ARC
8
0
10
292.25
20
-16.025
40
0.5
50
270
51
0
0
LINE
8
0
10
298.3
20
-2.525
11
311.3
21
-2.525
0
LINE
8
0
10
298.3
20
-16.525
11
311.3
21
-16.525
0
LINE
8
0
10
297.8
20
-3.025
11
297.8
21
-16.025
0
LINE
8
0
10
311.8
20
-3.025
11
311.8
21
-16.025
0
ARC
8
0
10
298.3
20
-3.025
40
0.5
50
90
51
180
0
ARC
8
0
10
311.3
20
-3.025
40
0.5
50
0
51
90
0
ARC
8
0
10
298.3
20
-16.025
40
0.5
50
180
51
270
0
ARC
8
0
10
311.3
20
-16.025
40
0.5
50
270
51
0
0
LINE
8
0
10
326.875
20
-2.525
11
339.875
21
-2.525
0
LINE
8
0
10
326.875
20
-16.525
11
339.875
21
-16.525
0
LINE
8
0
10
326.375
20
-3.025
11
326.375
21
-16.025
0
LINE
8
0
10
340.375
20
-3.025
11
340.375
21
-16.025
0
ARC
8
0
10
326.875
20
-3.025
40
0.5
50
90
51
180
0
ARC
8
0
10
339.875
20
-3.025
40
0.5
50
0
51
90
0
ARC
8
0
10
326.875
20
-16.025
40
0.5
50
180
51
270
0
ARC
8
0
10
339.875
20
-16.025
40
0.5
50
270
51
0
0
LINE
8
0
10
318.437
20
-3.525
11
324.437
21
-3.525
0
LINE
8
0
10
318.437
20
-18.525
11
324.437
21
-18.525
0
LINE
8
0
10
317.937
20
-4.025
11
317.937
21
-18.025
0
LINE
8
0
10
324.937
20
-4.025
11
324.937
21
-18.025
0
ARC
8
0
10
318.437
20
-4.025
40
0.5
50
90
51
180
0
ARC
8
0
10
324.437
20
-4.025
40
0.5
50
0
51
90
0
ARC
8
0
10
318.437
20
-18.025
40
0.5
50
180
51
270
0
ARC
8
0
10
324.437
20
-18.025
40
0.5
50
270
51
0
0
LINE
8
0
10
342.313
20
-3.525
11
348.313
21
-3.525
0
LINE
8
0
10
342.313
20
-18.525
11
348.313
21
-18.525
0
LINE
8
0
10
341.813
20
-4.025
11
341.813
21
-18.025
0
LINE
8
0
10
348.813
20
-4.025
11
348.813
21
-18.025
0
ARC
8
0
10
342.313
20
-4.025
40
0.5
50
90
51
180
0
ARC
8
0
10
348.313
20
-4.025
40
0.5
50
0
51
90
0
ARC
8
0
10
342.313
20
-18.025
40
0.5
50
180
51
270
0
ARC
8
0
10
348.313
20
-18.025
40
0.5
50
270
51
0
0
LINE
8
0
10
355.45
20
-2.525
11
368.45
21
-2.525
0
LINE
8
0
10
355.45
20
-16.525
11
368.45
21
-16.525
0
LINE
8
0
10
354.95
20
-3.025
11
354.95
21
-16.025
0
LINE
8
0
10
368.95
20
-3.025
11
368.95
21
-16.025
0
ARC
8
0
10
355.45
20
-3.025
40
0.5
50
90
51
180
0
ARC
8
0
10
368.45
20
-3.025
40
0.5
50
0
51
90
0
ARC
8
0
10
355.45
20
-16.025
40
0.5
50
180
51
270
0
ARC
8
0
10
368.45
20
-16.025
40
0.5
50
270
51
0
0
LINE
8
0
10
193.525
20
-21.575
11
206.525
21
-21.575
0
LINE
8
0
10
193.525
20
-35.575
11
206.525
21
-35.575
0
LINE
8
0
10
193.025
20
-22.075
11
193.025
21
-35.075
0
LINE
8
0
10
207.025
20
-22.075
11
207.025
21
-35.075
0
ARC
8
0
10
193.525
20
-22.075
40
0.5
50
90
51
180
0
ARC
8
0
10
206.525
20
-22.075
40
0.5
50
0
51
90
0
ARC
8
0
10
193.525
20
-35.075
40
0.5
50
180
51
270
0
ARC
8
0
10
206.525
20
-35.075
40
0.5
50
270
51
0
0
LINE
8
0
10
212.575
20
-21.575
11
225.575
21
-21.575
0
LINE
8
0
10
212.575
20
-35.575
11
225.575
21
-35.575
0
LINE
8
0
10
212.075
20
-22.075
11
212.075
21
-35.075
0
LINE
8
0
10
226.075
20
-22.075
11
226.075
21
-35.075
0
ARC
8
0
10
212.575
20
-22.075
40
0.5
50
90
51
180
0
ARC
8
0
10
225.575
20
-22.075
40
0.5
50
0
51
90
0
ARC
8
0
10
212.575
20
-35.075
40
0.5
50
180
51
270
0
ARC
8
0
10
225.575
20
-35.075
40
0.5
50
270
51
0
0
LINE
8
0
10
231.625
20
-21.575
11
244.625
21
-21.575
0
LINE
8
0
10
231.625
20
-35.575
11
244.625
21
-35.575
0
LINE
8
0
10
231.125
20
-22.075
11
231.125
21
-35.075
0
LINE
8
0
10
245.125
20
-22.075
11
245.125
21
-35.075
0
ARC
8
0
10
231.625
20
-22.075
40
0.5
50
90
51
180
0
ARC
8
0
10
244.625
20
-22.075
40
0.5
50
0
51
90
0
ARC
8
0
10
231.625
20
-35.075
40
0.5
50
180
51
270
0
ARC
8
0
10
244.625
20
-35.075
40
0.5
50
270
51
0
0
LINE
8
0
10
250.675
20
-21.575
11
263.675
21
-21.575
0
LINE
8
0
10
250.675
20
-35.575
11
263.675
21
-35.575
0
LINE
8
0
10
250.175
20
-22.075
11
250.175
21
-35.075
0
LINE
8
0
10
264.175
20
-22.075
11
264.175
21
-35.075
0
ARC
8
0
10
250.675
20
-22.075
40
0.5
50
90
51
180
0
ARC
8
0
10
263.675
20
-22.075
40
0.5
50
0
51
90
0
ARC
8
0
10
250.675
20
-35.075
40
0.5
50
180
51
270
0
ARC
8
0
10
263.675
20
-35.075
40
0.5
50
270
51
0
0
LINE
8
0
10
269.725
20
-21.575
11
282.725
21
-21.575
0
LINE
8
0
10
269.725
20
-35.575
11
282.725
21
-35.575
0
LINE
8
0
10
269.225
20
-22.075
11
269.225
21
-35.075
0
LINE
8
0
10
283.225
20
-22.075
11
283.225
21
-35.075
0
ARC
8
0
10
269.725
20
-22.075
40
0.5
50
90
51
180
0
ARC
8
0
10
282.725
20
-22.075
40
0.5
50
0
51
90
0
ARC
8
0
10
269.725
20
-35.075
40
0.5
50
180
51
270
0
ARC
8
0
10
282.725
20
-35.075
40
0.5
50
270
51
0
0
LINE
8
0
10
288.775
20
-21.575
11
301.775
21
-21.575
0
LINE
8
0
10
288.775
20
-35.575
11
301.775
21
-35.575
0
LINE
8
0
10
288.275
20
-22.075
11
288.275
21
-35.075
0
LINE
8
0
10
302.275
20
-22.075
11
302.275
21
-35.075
0
ARC
8
0
10
288.775
20
-22.075
40
0.5
50
90
51
180
0
ARC
8
0
10
301.775
20
-22.075
40
0.5
50
0
51
90
0
ARC
8
0
10
288.775
20
-35.075
40
0.5
50
180
51
270
0
ARC
8
0
10
301.775
20
-35.075
40
0.5
50
270
51
0
0
LINE
8
0
10
307.825
20
-21.575
11
320.825
21
-21.575
0
LINE
8
0
10
307.825
20
-35.575
11
320.825
21
-35.575
0
LINE
8
0
10
307.325
20
-22.075
11
307.325
21
-35.075
0
LINE
8
0
10
321.325
20
-22.075
11
321.325
21
-35.075
0
ARC
8
0
10
307.825
20
-22.075
40
0.5
50
90
51
180
0
ARC
8
0
10
320.825
20
-22.075
40
0.5
50
0
51
90
0
ARC
8
0
10
307.825
20
-35.075
40
0.5
50
180
51
270
0
ARC
8
0
10
320.825
20
-35.075
40
0.5
50
270
51
0
0
LINE
8
0
10
347.51875
20
-31.6
11
347.51875
21
-44.6
0
LINE
8
0
10
333.51875
20
-31.6
11
333.51875
21
-44.6
0
LINE
8
0
10
347.01875
20
-31.1
11
334.01875
21
-31.1
0
LINE
8
0
10
347.01875
20
-45.1
11
334.01875
21
-45.1
0
ARC
8
0
10
347.01875
20
-31.6
40
0.5
50
0
51
90
0
ARC
8
0
10
347.01875
20
-44.6
40
0.5
50
270
51
0
0
ARC
8
0
10
334.01875
20
-31.6
40
0.5
50
90
51
180
0
ARC
8
0
10
334.01875
20
-44.6
40
0.5
50
180
51
270
0
LINE
8
0
10
346.51875
20
-23.162
11
346.51875
21
-29.162
0
LINE
8
0
10
331.51875
20
-23.162
11
331.51875
21
-29.162
0
LINE
8
0
10
346.01875
20
-22.662
11
332.01875
21
-22.662
0
LINE
8
0
10
346.01875
20
-29.662
11
332.01875
21
-29.662
0
ARC
8
0
10
346.01875
20
-23.162
40
0.5
50
0
51
90
0
ARC
8
0
10
346.01875
20
-29.162
40
0.5
50
270
51
0
0
ARC
8
0
10
332.01875
20
-23.162
40
0.5
50
90
51
180
0
ARC
8
0
10
332.01875
20
-29.162
40
0.5
50
180
51
270
0
LINE
8
0
10
346.51875
20
-47.038
11
346.51875
21
-53.038
0
LINE
8
0
10
331.51875
20
-47.038
11
331.51875
21
-53.038
0
LINE
8
0
10
346.01875
20
-46.538
11
332.01875
21
-46.538
0
LINE
8
0
10
346.01875
20
-53.538
11
332.01875
21
-53.538
0
ARC
8
0
10
346.01875
20
-47.038
40
0.5
50
0
51
90
0
ARC
8
0
10
346.01875
20
-53.038
40
0.5
50
270
51
0
0
ARC
8
0
10
332.01875
20
-47.038
40
0.5
50
90
51
180
0
ARC
8
0
10
332.01875
20
-53.038
40
0.5
50
180
51
270
0
LINE
8
0
10
355.45
20
-21.575
11
368.45
21
-21.575
0
LINE
8
0
10
355.45
20
-35.575
11
368.45
21
-35.575
0
LINE
8
0
10
354.95
20
-22.075
11
354.95
21
-35.075
0
LINE
8
0
10
368.95
20
-22.075
11
368.95
21
-35.075
0
ARC
8
0
10
355.45
20
-22.075
40
0.5
50
90
51
180
0
ARC
8
0
10
368.45
20
-22.075
40
0.5
50
0
51
90
0
ARC
8
0
10
355.45
20
-35.075
40
0.5
50
180
51
270
0
ARC
8
0
10
368.45
20
-35.075
40
0.5
50
270
51
0
0
LINE
8
0
10
198.2875
20
-40.625
11
211.2875
21
-40.625
0
LINE
8
0
10
198.2875
20
-54.625
11
211.2875
21
-54.625
0
LINE
8
0
10
197.7875
20
-41.125
11
197.7875
21
-54.125
0
LINE
8
0
10
211.7875
20
-41.125
11
211.7875
21
-54.125
0
ARC
8
0
10
198.2875
20
-41.125
40
0.5
50
90
51
180
0
ARC
8
0
10
211.2875
20
-41.125
40
0.5
50
0
51
90
0
ARC
8
0
10
198.2875
20
-54.125
40
0.5
50
180
51
270
0
ARC
8
0
10
211.2875
20
-54.125
40
0.5
50
270
51
0
0
LINE
8
0
10
217.3375
20
-40.625
11
230.3375
21
-40.625
0
LINE
8
0
10
217.3375
20
-54.625
11
230.3375
21
-54.625
0
LINE
8
0
10
216.8375
20
-41.125
11
216.8375
21
-54.125
0
LINE
8
0
10
230.8375
20
-41.125
11
230.8375
21
-54.125
0
ARC
8
0
10
217.3375
20
-41.125
40
0.5
50
90
51
180
0
ARC
8
0
10
230.3375
20
-41.125
40
0.5
50
0
51
90
0
ARC
8
0
10
217.3375
20
-54.125
40
0.5
50
180
51
270
0
ARC
8
0
10
230.3375
20
-54.125
40
0.5
50
270
51
0
0
LINE
8
0
10
236.3875
20
-40.625
11
249.3875
21
-40.625
0
LINE
8
0
10
236.3875
20
-54.625
11
249.3875
21
-54.625
0
LINE
8
0
10
235.8875
20
-41.125
11
235.8875
21
-54.125
0
LINE
8
0
10
249.8875
20
-41.125
11
249.8875
21
-54.125
0
ARC
8
0
10
236.3875
20
-41.125
40
0.5
50
90
51
180
0
ARC
8
0
10
249.3875
20
-41.125
40
0.5
50
0
51
90
0
ARC
8
0
10
236.3875
20
-54.125
40
0.5
50
180
51
270
0
ARC
8
0
10
249.3875
20
-54.125
40
0.5
50
270
51
0
0
LINE
8
0
10
255.4375
20
-40.625
11
268.4375
21
-40.625
0
LINE
8
0
10
255.4375
20
-54.625
11
268.4375
21
-54.625
0
LINE
8
0
10
254.9375
20
-41.125
11
254.9375
21
-54.125
0
LINE
8
0
10
268.9375
20
-41.125
11
268.9375
21
-54.125
0
ARC
8
0
10
255.4375
20
-41.125
40
0.5
50
90
51
180
0
ARC
8
0
10
268.4375
20
-41.125
40
0.5
50
0
51
90
0
ARC
8
0
10
255.4375
20
-54.125
40
0.5
50
180
51
270
0
ARC
8
0
10
268.4375
20
-54.125
40
0.5
50
270
51
0
0
LINE
8
0
10
274.4875
20
-40.625
11
287.4875
21
-40.625
0
LINE
8
0
10
274.4875
20
-54.625
11
287.4875
21
-54.625
0
LINE
8
0
10
273.9875
20
-41.125
11
273.9875
21
-54.125
0
LINE
8
0
10
287.9875
20
-41.125
11
287.9875
21
-54.125
0
ARC
8
0
10
274.4875
20
-41.125
40
0.5
50
90
51
180
0
ARC
8
0
10
287.4875
20
-41.125
40
0.5
50
0
51
90
0
ARC
8
0
10
274.4875
20
-54.125
40
0.5
50
180
51
270
0
ARC
8
0
10
287.4875
20
-54.125
40
0.5
50
270
51
0
0
LINE
8
0
10
293.5375
20
-40.625
11
306.5375
21
-40.625
0
LINE
8
0
10
293.5375
20
-54.625
11
306.5375
21
-54.625
0
LINE
8
0
10
293.0375
20
-41.125
11
293.0375
21
-54.125
0
LINE
8
0
10
307.0375
20
-41.125
11
307.0375
21
-54.125
0
ARC
8
0
10
293.5375
20
-41.125
40
0.5
50
90
51
180
0
ARC
8
0
10
306.5375
20
-41.125
40
0.5
50
0
51
90
0
ARC
8
0
10
293.5375
20
-54.125
40
0.5
50
180
51
270
0
ARC
8
0
10
306.5375
20
-54.125
40
0.5
50
270
51
0
0
LINE
8
0
10
312.5875
20
-40.625
11
325.5875
21
-40.625
0
LINE
8
0
10
312.5875
20
-54.625
11
325.5875
21
-54.625
0
LINE
8
0
10
312.0875
20
-41.125
11
312.0875
21
-54.125
0
LINE
8
0
10
326.0875
20
-41.125
11
326.0875
21
-54.125
0
ARC
8
0
10
312.5875
20
-41.125
40
0.5
50
90
51
180
0
ARC
8
0
10
325.5875
20
-41.125
40
0.5
50
0
51
90
0
ARC
8
0
10
312.5875
20
-54.125
40
0.5
50
180
51
270
0
ARC
8
0
10
325.5875
20
-54.125
40
0.5
50
270
51
0
0
LINE
8
0
10
355.45
20
-40.625
11
368.45
21
-40.625
0
LINE
8
0
10
355.45
20
-54.625
11
368.45
21
-54.625
0
LINE
8
0
10
354.95
20
-41.125
11
354.95
21
-54.125
0
LINE
8
0
10
368.95
20
-41.125
11
368.95
21
-54.125
0
ARC
8
0
10
355.45
20
-41.125
40
0.5
50
90
51
180
0
ARC
8
0
10
368.45
20
-41.125
40
0.5
50
0
51
90
0
ARC
8
0
10
355.45
20
-54.125
40
0.5
50
180
51
270
0
ARC
8
0
10
368.45
20
-54.125
40
0.5
50
270
51
0
0
LINE
8
0
10
207.8125
20
-59.675
11
220.8125
21
-59.675
0
LINE
8
0
10
207.8125
20
-73.675
11
220.8125
21
-73.675
0
LINE
8
0
10
207.3125
20
-60.175
11
207.3125
21
-73.175
0
LINE
8
0
10
221.3125
20
-60.175
11
221.3125
21
-73.175
0
ARC
8
0
10
207.8125
20
-60.175
40
0.5
50
90
51
180
0
ARC
8
0
10
220.8125
20
-60.175
40
0.5
50
0
51
90
0
ARC
8
0
10
207.8125
20
-73.175
40
0.5
50
180
51
270
0
ARC
8
0
10
220.8125
20
-73.175
40
0.5
50
270
51
0
0
LINE
8
0
10
226.8625
20
-59.675
11
239.8625
21
-59.675
0
LINE
8
0
10
226.8625
20
-73.675
11
239.8625
21
-73.675
0
LINE
8
0
10
226.3625
20
-60.175
11
226.3625
21
-73.175
0
LINE
8
0
10
240.3625
20
-60.175
11
240.3625
21
-73.175
0
ARC
8
0
10
226.8625
20
-60.175
40
0.5
50
90
51
180
0
ARC
8
0
10
239.8625
20
-60.175
40
0.5
50
0
51
90
0
ARC
8
0
10
226.8625
20
-73.175
40
0.5
50
180
51
270
0
ARC
8
0
10
239.8625
20
-73.175
40
0.5
50
270
51
0
0
LINE
8
0
10
245.9125
20
-59.675
11
258.9125
21
-59.675
0
LINE
8
0
10
245.9125
20
-73.675
11
258.9125
21
-73.675
0
LINE
8
0
10
245.4125
20
-60.175
11
245.4125
21
-73.175
0
LINE
8
0
10
259.4125
20
-60.175
11
259.4125
21
-73.175
0
ARC
8
0
10
245.9125
20
-60.175
40
0.5
50
90
51
180
0
ARC
8
0
10
258.9125
20
-60.175
40
0.5
50
0
51
90
0
ARC
8
0
10
245.9125
20
-73.175
40
0.5
50
180
51
270
0
ARC
8
0
10
258.9125
20
-73.175
40
0.5
50
270
51
0
0
LINE
8
0
10
264.9625
20
-59.675
11
277.9625
21
-59.675
0
LINE
8
0
10
264.9625
20
-73.675
11
277.9625
21
-73.675
0
LINE
8
0
10
264.4625
20
-60.175
11
264.4625
21
-73.175
0
LINE
8
0
10
278.4625
20
-60.175
11
278.4625
21
-73.175
0
ARC
8
0
10
264.9625
20
-60.175
40
0.5
50
90
51
180
0
ARC
8
0
10
277.9625
20
-60.175
40
0.5
50
0
51
90
0
ARC
8
0
10
264.9625
20
-73.175
40
0.5
50
180
51
270
0
ARC
8
0
10
277.9625
20
-73.175
40
0.5
50
270
51
0
0
LINE
8
0
10
284.0125
20
-59.675
11
297.0125
21
-59.675
0
LINE
8
0
10
284.0125
20
-73.675
11
297.0125
21
-73.675
0
LINE
8
0
10
283.5125
20
-60.175
11
283.5125
21
-73.175
0
LINE
8
0
10
297.5125
20
-60.175
11
297.5125
21
-73.175
0
ARC
8
0
10
284.0125
20
-60.175
40
0.5
50
90
51
180
0
ARC
8
0
10
297.0125
20
-60.175
40
0.5
50
0
51
90
0
ARC
8
0
10
284.0125
20
-73.175
40
0.5
50
180
51
270
0
ARC
8
0
10
297.0125
20
-73.175
40
0.5
50
270
51
0
0
LINE
8
0
10
310.20625
20
-59.675
11
323.20625
21
-59.675
0
LINE
8
0
10
310.20625
20
-73.675
11
323.20625
21
-73.675
0
LINE
8
0
10
309.70625
20
-60.175
11
309.70625
21
-73.175
0
LINE
8
0
10
323.70625
20
-60.175
11
323.70625
21
-73.175
0
ARC
8
0
10
310.20625
20
-60.175
40
0.5
50
90
51
180
0
ARC
8
0
10
323.20625
20
-60.175
40
0.5
50
0
51
90
0
ARC
8
0
10
310.20625
20
-73.175
40
0.5
50
180
51
270
0
ARC
8
0
10
323.20625
20
-73.175
40
0.5
50
270
51
0
0
LINE
8
0
10
336.4
20
-59.675
11
349.4
21
-59.675
0
LINE
8
0
10
336.4
20
-73.675
11
349.4
21
-73.675
0
LINE
8
0
10
335.9
20
-60.175
11
335.9
21
-73.175
0
LINE
8
0
10
349.9
20
-60.175
11
349.9
21
-73.175
0
ARC
8
0
10
336.4
20
-60.175
40
0.5
50
90
51
180
0
ARC
8
0
10
349.4
20
-60.175
40
0.5
50
0
51
90
0
ARC
8
0
10
336.4
20
-73.175
40
0.5
50
180
51
270
0
ARC
8
0
10
349.4
20
-73.175
40
0.5
50
270
51
0
0
LINE
8
0
10
355.45
20
-59.675
11
368.45
21
-59.675
0
LINE
8
0
10
355.45
20
-73.675
11
368.45
21
-73.675
0
LINE
8
0
10
354.95
20
-60.175
11
354.95
21
-73.175
0
LINE
8
0
10
368.95
20
-60.175
11
368.95
21
-73.175
0
ARC
8
0
10
355.45
20
-60.175
40
0.5
50
90
51
180
0
ARC
8
0
10
368.45
20
-60.175
40
0.5
50
0
51
90
0
ARC
8
0
10
355.45
20
-73.175
40
0.5
50
180
51
270
0
ARC
8
0
10
368.45
20
-73.175
40
0.5
50
270
51
0
0
LINE
8
0
10
217.3375
20
-78.725
11
230.3375
21
-78.725
0
LINE
8
0
10
217.3375
20
-92.725
11
230.3375
21
-92.725
0
LINE
8
0
10
216.8375
20
-79.225
11
216.8375
21
-92.225
0
LINE
8
0
10
230.8375
20
-79.225
11
230.8375
21
-92.225
0
ARC
8
0
10
217.3375
20
-79.225
40
0.5
50
90
51
180
0
ARC
8
0
10
230.3375
20
-79.225
40
0.5
50
0
51
90
0
ARC
8
0
10
217.3375
20
-92.225
40
0.5
50
180
51
270
0
ARC
8
0
10
230.3375
20
-92.225
40
0.5
50
270
51
0
0
LINE
8
0
10
208.8995
20
-79.725
11
214.8995
21
-79.725
0
LINE
8
0
10
208.8995
20
-94.725
11
214.8995
21
-94.725
0
LINE
8
0
10
208.3995
20
-80.225
11
208.3995
21
-94.225
0
LINE
8
0
10
215.3995
20
-80.225
11
215.3995
21
-94.225
0
ARC
8
0
10
208.8995
20
-80.225
40
0.5
50
90
51
180
0
ARC
8
0
10
214.8995
20
-80.225
40
0.5
50
0
51
90
0
ARC
8
0
10
208.8995
20
-94.225
40
0.5
50
180
51
270
0
ARC
8
0
10
214.8995
20
-94.225
40
0.5
50
270
51
0
0
LINE
8
0
10
232.7755
20
-79.725
11
238.7755
21
-79.725
0
LINE
8
0
10
232.7755
20
-94.725
11
238.7755
21
-94.725
0
LINE
8
0
10
232.2755
20
-80.225
11
232.2755
21
-94.225
0
LINE
8
0
10
239.2755
20
-80.225
11
239.2755
21
-94.225
0
ARC
8
0
10
232.7755
20
-80.225
40
0.5
50
90
51
180
0
ARC
8
0
10
238.7755
20
-80.225
40
0.5
50
0
51
90
0
ARC
8
0
10
232.7755
20
-94.225
40
0.5
50
180
51
270
0
ARC
8
0
10
238.7755
20
-94.225
40
0.5
50
270
51
0
0
LINE
8
0
10
248.29375
20
-78.725
11
261.29375
21
-78.725
0
LINE
8
0
10
248.29375
20
-92.725
11
261.29375
21
-92.725
0
LINE
8
0
10
247.79375
20
-79.225
11
247.79375
21
-92.225
0
LINE
8
0
10
261.79375
20
-79.225
11
261.79375
21
-92.225
0
ARC
8
0
10
248.29375
20
-79.225
40
0.5
50
90
51
180
0
ARC
8
0
10
261.29375
20
-79.225
40
0.5
50
0
51
90
0
ARC
8
0
10
248.29375
20
-92.225
40
0.5
50
180
51
270
0
ARC
8
0
10
261.29375
20
-92.225
40
0.5
50
270
51
0
0
LINE
8
0
10
272.10625
20
-78.725
11
285.10625
21
-78.725
0
LINE
8
0
10
272.10625
20
-92.725
11
285.10625
21
-92.725
0
LINE
8
0
10
271.60625
20
-79.225
11
271.60625
21
-92.225
0
LINE
8
0
10
285.60625
20
-79.225
11
285.60625
21
-92.225
0
ARC
8
0
10
272.10625
20
-79.225
40
0.5
50
90
51
180
0
ARC
8
0
10
285.10625
20
-79.225
40
0.5
50
0
51
90
0
ARC
8
0
10
272.10625
20
-92.225
40
0.5
50
180
51
270
0
ARC
8
0
10
285.10625
20
-92.225
40
0.5
50
270
51
0
0
LINE
8
0
10
295.91875
20
-78.725
11
308.91875
21
-78.725
0
LINE
8
0
10
295.91875
20
-92.725
11
308.91875
21
-92.725
0
LINE
8
0
10
295.41875
20
-79.225
11
295.41875
21
-92.225
0
LINE
8
0
10
309.41875
20
-79.225
11
309.41875
21
-92.225
0
ARC
8
0
10
295.91875
20
-79.225
40
0.5
50
90
51
180
0
ARC
8
0
10
308.91875
20
-79.225
40
0.5
50
0
51
90
0
ARC
8
0
10
295.91875
20
-92.225
40
0.5
50
180
51
270
0
ARC
8
0
10
308.91875
20
-92.225
40
0.5
50
270
51
0
0
LINE
8
0
10
317.35
20
-78.725
11
330.35
21
-78.725
0
LINE
8
0
10
317.35
20
-92.725
11
330.35
21
-92.725
0
LINE
8
0
10
316.85
20
-79.225
11
316.85
21
-92.225
0
LINE
8
0
10
330.85
20
-79.225
11
330.85
21
-92.225
0
ARC
8
0
10
317.35
20
-79.225
40
0.5
50
90
51
180
0
ARC
8
0
10
330.35
20
-79.225
40
0.5
50
0
51
90
0
ARC
8
0
10
317.35
20
-92.225
40
0.5
50
180
51
270
0
ARC
8
0
10
330.35
20
-92.225
40
0.5
50
270
51
0
0
LINE
8
0
10
336.4
20
-78.725
11
349.4
21
-78.725
0
LINE
8
0
10
336.4
20
-92.725
11
349.4
21
-92.725
0
LINE
8
0
10
335.9
20
-79.225
11
335.9
21
-92.225
0
LINE
8
0
10
349.9
20
-79.225
11
349.9
21
-92.225
0
ARC
8
0
10
336.4
20
-79.225
40
0.5
50
90
51
180
0
ARC
8
0
10
349.4
20
-79.225
40
0.5
50
0
51
90
0
ARC
8
0
10
336.4
20
-92.225
40
0.5
50
180
51
270
0
ARC
8
0
10
349.4
20
-92.225
40
0.5
50
270
51
0
0
LINE
8
0
10
355.45
20
-78.725
11
368.45
21
-78.725
0
LINE
8
0
10
355.45
20
-92.725
11
368.45
21
-92.725
0
LINE
8
0
10
354.95
20
-79.225
11
354.95
21
-92.225
0
LINE
8
0
10
368.95
20
-79.225
11
368.95
21
-92.225
0
ARC
8
0
10
355.45
20
-79.225
40
0.5
50
90
51
180
0
ARC
8
0
10
368.45
20
-79.225
40
0.5
50
0
51
90
0
ARC
8
0
10
355.45
20
-92.225
40
0.5
50
180
51
270
0
ARC
8
0
10
368.45
20
-92.225
40
0.5
50
270
51
0
0
LINE
8
0
10
190.5
20
-95.25
11
371.475
21
-95.25
0
LINE
8
0
10
190.5
20
0
11
371.475
21
0
0
LINE
8
0
10
190.5
20
-95.25
11
190.5
21
0
0
LINE
8
0
10
371.475
20
-95.25
11
371.475
21
0
0
ENDSEC
0
EOF