0
SECTION
2
HEADER
9
$INSUNITS
70
4
9
$ACADVER
1
AC1014
9
$HANDSEED
5
FFFF
0
ENDSEC
0
SECTION
2
TABLES
0
TABLE
2
VPORT
5
8
100
AcDbSymbolTable
0
ENDTAB
0
TABLE
2
LTYPE
5
5
100
AcDbSymbolTable
0
LTYPE
5
14
100
AcDbSymbolTableRecord
100
AcDbLinetypeTableRecord
2
BYBLOCK
70
0
0
LTYPE
5
15
100
AcDbSymbolTableRecord
100
AcDbLinetypeTableRecord
2
BYLAYER
70
0
0
ENDTAB
0
TABLE
2
LAYER
5
2
100
AcDbSymbolTable
70
2
0
LAYER
5
50
100
AcDbSymbolTableRecord
100
AcDbLayerTableRecord
2
0
70
0
6
CONTINUOUS
0
ENDTAB
0
TABLE
2
STYLE
5
3
100
AcDbSymbolTable
70
1
0
STYLE
5
11
100
AcDbSymbolTableRecord
100
AcDbTextStyleTableRecord
2
STANDARD
70
0
0
ENDTAB
0
TABLE
2
VIEW
5
6
100
AcDbSymbolTable
70
0
0
ENDTAB
0
TABLE
2
UCS
5
7
100
AcDbSymbolTable
70
0
0
ENDTAB
0
TABLE
2
APPID
5
9
100
AcDbSymbolTable
70
2
0
APPID
5
12
100
AcDbSymbolTableRecord
100
AcDbRegAppTableRecord
2
ACAD
70
0
0
ENDTAB
0
TABLE
2
DIMSTYLE
5
A
100
AcDbSymbolTable
70
1
0
ENDTAB
0
TABLE
2
BLOCK_RECORD
5
1
100
AcDbSymbolTable
70
1
0
BLOCK_RECORD
5
1F
100
AcDbSymbolTableRecord
100
AcDbBlockTableRecord
2
*MODEL_SPACE
0
BLOCK_RECORD
5
1B
100
AcDbSymbolTableRecord
100
AcDbBlockTableRecord
2
*PAPER_SPACE
0
ENDTAB
0
ENDSEC
0
SECTION
2
BLOCKS
0
BLOCK
5
20
100
AcDbEntity
100
AcDbBlockBegin
2
*MODEL_SPACE
0
ENDBLK
5
21
100
AcDbEntity
100
AcDbBlockEnd
0
BLOCK
5
1C
100
AcDbEntity
100
AcDbBlockBegin
2
*PAPER_SPACE
0
ENDBLK
5
1D
100
AcDbEntity
100
AcDbBlockEnd
0
ENDSEC
0
SECTION
2
ENTITIES
0
CIRCLE
5
100
100
AcDbEntity
8
0
100
AcDbCircle
10
124.3965
20
-95.567499999999995
30
0
40
1.3500000000000001
210
0
220
0
230
1
0
CIRCLE
5
101
100
AcDbEntity
8
0
100
AcDbCircle
10
98.894900000000021
20
-114.1095
30
0
40
1.3500000000000001
210
0
220
0
230
1
0
CIRCLE
5
102
100
AcDbEntity
8
0
100
AcDbCircle
10
199.69999999999999
20
-100
30
0
40
1.3500000000000001
210
0
220
0
230
1
0
LWPOLYLINE
5
103
100
AcDbEntity
8
0
100
AcDbPolyline
90
4
70
1
43
0.0
10
116.85000000000002
20
-119.20000000000002
10
116.85000000000002
20
-133.19999999999999
10
130.85000000000002
20
-133.19999999999999
10
130.85000000000002
20
-119.20000000000002
0
LWPOLYLINE
5
104
100
AcDbEntity
8
0
100
AcDbPolyline
90
4
70
1
43
0.0
10
107.40000000000002
20
-43
10
107.40000000000002
20
-57
10
121.40000000000001
20
-57
10
121.40000000000001
20
-43
0
LWPOLYLINE
5
105
100
AcDbEntity
8
0
100
AcDbPolyline
90
4
70
1
43
0.0
10
107.40000000000002
20
-62.049999999999997
10
107.40000000000002
20
-76.049999999999983
10
121.40000000000001
20
-76.049999999999983
10
121.40000000000001
20
-62.049999999999997
0
LWPOLYLINE
5
106
100
AcDbEntity
8
0
100
AcDbPolyline
90
4
70
1
43
0.0
10
98.230000000000004
20
-71.089999999999989
10
98.230000000000004
20
-40.390000000000001
10
85.030000000000001
20
-40.390000000000001
10
85.030000000000001
20
-71.089999999999989
0
LWPOLYLINE
5
107
100
AcDbEntity
8
0
100
AcDbPolyline
90
4
70
1
43
0.0
10
159.5
20
-77.310000000000002
10
145.5
20
-77.310000000000002
10
145.5
20
-91.310000000000002
10
159.5
20
-91.310000000000002
0
LWPOLYLINE
5
108
100
AcDbEntity
8
0
100
AcDbPolyline
90
4
70
1
43
0.0
10
126.45000000000002
20
-40.600000000000016
10
126.45000000000002
20
-54.600000000000009
10
140.44999999999999
20
-54.600000000000009
10
140.44999999999999
20
-40.600000000000016
0
LWPOLYLINE
5
109
100
AcDbEntity
8
0
100
AcDbPolyline
90
4
70
1
43
0.0
10
126.45000000000002
20
-78.700000000000017
10
126.45000000000002
20
-92.700000000000017
10
140.44999999999999
20
-92.700000000000017
10
140.44999999999999
20
-78.700000000000017
0
LWPOLYLINE
5
110
100
AcDbEntity
8
0
100
AcDbPolyline
90
4
70
1
43
0.0
10
164.55000000000001
20
-59.65000000000002
10
164.55000000000001
20
-73.650000000000006
10
178.55000000000001
20
-73.650000000000006
10
178.55000000000001
20
-59.65000000000002
0
LWPOLYLINE
5
111
100
AcDbEntity
8
0
100
AcDbPolyline
90
4
70
1
43
0.0
10
83.474799999999988
20
-91.285149999999987
10
83.474799999999988
20
-105.28514999999999
10
97.474799999999988
20
-105.28514999999999
10
97.474799999999988
20
-91.285149999999987
0
LWPOLYLINE
5
112
100
AcDbEntity
8
0
100
AcDbPolyline
90
4
70
1
43
0.0
10
183.59999999999999
20
-102.55000000000001
10
183.59999999999999
20
-116.55000000000001
10
197.60000000000002
20
-116.55000000000001
10
197.60000000000002
20
-102.55000000000001
0
LWPOLYLINE
5
113
100
AcDbEntity
8
0
100
AcDbPolyline
90
4
70
1
43
0.0
10
183.59999999999999
20
-64.449999999999989
10
183.59999999999999
20
-78.450000000000003
10
197.60000000000002
20
-78.450000000000003
10
197.60000000000002
20
-64.449999999999989
0
CIRCLE
5
114
100
AcDbEntity
8
0
100
AcDbCircle
10
124.32538000000001
20
-57.40908000000001
30
0
40
1.3500000000000001
210
0
220
0
230
1
0
LWPOLYLINE
5
115
100
AcDbEntity
8
0
100
AcDbPolyline
90
4
70
1
43
0.0
10
164.55000000000001
20
-40.600000000000016
10
164.55000000000001
20
-54.600000000000009
10
178.55000000000001
20
-54.600000000000009
10
178.55000000000001
20
-40.600000000000016
0
LWPOLYLINE
5
116
100
AcDbEntity
8
0
100
AcDbPolyline
90
4
70
1
43
0.0
10
197.60000000000002
20
-83.5
10
183.59999999999999
20
-83.5
10
183.59999999999999
20
-97.5
10
197.60000000000002
20
-97.5
0
LWPOLYLINE
5
117
100
AcDbEntity
8
0
100
AcDbPolyline
90
4
70
1
43
0.0
10
145.5
20
-58.259999999999991
10
145.5
20
-72.259999999999991
10
159.5
20
-72.259999999999991
10
159.5
20
-58.259999999999991
0
LWPOLYLINE
5
118
100
AcDbEntity
8
0
100
AcDbPolyline
90
4
70
1
43
0.0
10
126.45000000000002
20
-59.65000000000002
10
126.45000000000002
20
-73.650000000000006
10
140.44999999999999
20
-73.650000000000006
10
140.44999999999999
20
-59.65000000000002
0
LWPOLYLINE
5
119
100
AcDbEntity
8
0
100
AcDbPolyline
90
4
70
1
43
0.0
10
202.65000000000001
20
-46.900000000000006
10
202.65000000000001
20
-60.899999999999999
10
216.65000000000003
20
-60.899999999999999
10
216.65000000000003
20
-46.900000000000006
0
LWPOLYLINE
5
120
100
AcDbEntity
8
0
100
AcDbPolyline
90
4
70
1
43
0.0
10
149.898
20
-117.82800000000002
10
135.898
20
-117.82800000000002
10
135.898
20
-131.828
10
149.898
20
-131.828
0
LWPOLYLINE
5
121
100
AcDbEntity
8
0
100
AcDbPolyline
90
4
70
1
43
0.0
10
216.65000000000003
20
-85
10
202.65000000000001
20
-85
10
202.65000000000001
20
-99
10
216.65000000000003
20
-99
0
LWPOLYLINE
5
122
100
AcDbEntity
8
0
100
AcDbPolyline
90
4
70
1
43
0.0
10
178.55000000000001
20
-97.75
10
164.55000000000001
20
-97.75
10
164.55000000000001
20
-111.75
10
178.55000000000001
20
-111.75
0
LWPOLYLINE
5
123
100
AcDbEntity
8
0
100
AcDbPolyline
90
4
70
1
43
0.0
10
107.40000000000002
20
-100.15000000000001
10
107.40000000000002
20
-114.15000000000001
10
121.40000000000001
20
-114.15000000000001
10
121.40000000000001
20
-100.15000000000001
0
LWPOLYLINE
5
124
100
AcDbEntity
8
0
100
AcDbPolyline
90
4
70
1
43
0.0
10
145.5
20
-96.360000000000014
10
145.5
20
-110.36000000000001
10
159.5
20
-110.36000000000001
10
159.5
20
-96.360000000000014
0
LWPOLYLINE
5
125
100
AcDbEntity
8
0
100
AcDbPolyline
90
4
70
1
43
0.0
10
216.65000000000003
20
-65.949999999999989
10
202.65000000000001
20
-65.949999999999989
10
202.65000000000001
20
-79.950000000000017
10
216.65000000000003
20
-79.950000000000017
0
LWPOLYLINE
5
126
100
AcDbEntity
8
0
100
AcDbPolyline
90
4
70
1
43
0.0
10
126.45000000000002
20
-97.75
10
126.45000000000002
20
-111.75
10
140.44999999999999
20
-111.75
10
140.44999999999999
20
-97.75
0
LWPOLYLINE
5
127
100
AcDbEntity
8
0
100
AcDbPolyline
90
4
70
1
43
0.0
10
164.55000000000001
20
-78.700000000000017
10
164.55000000000001
20
-92.700000000000017
10
178.55000000000001
20
-92.700000000000017
10
178.55000000000001
20
-78.700000000000017
0
LWPOLYLINE
5
128
100
AcDbEntity
8
0
100
AcDbPolyline
90
58
70
1
43
0.0
10
171.93700000000004
20
-135.24400000000003
10
171.75399999999999
20
-135.46600000000001
10
171.53200000000001
20
-135.649
10
171.27700000000002
20
-135.78700000000001
10
170.99600000000004
20
-135.875
10
170.69300000000001
20
-135.905
10
110.31999999999999
20
-135.905
10
97.594800000000021
20
-143.27199999999999
10
97.426900000000018
20
-143.35700000000003
10
97.268200000000007
20
-143.404
10
97.11930000000001
20
-143.41399999999999
10
96.980500000000021
20
-143.386
10
96.852300000000028
20
-143.32300000000001
10
96.735299999999995
20
-143.22300000000001
10
96.629800000000017
20
-143.08799999999999
10
81.978499999999997
20
-117.66500000000001
10
81.419700000000006
20
-116.395
10
81.15300000000002
20
-115.379
10
80.899000000000001
20
-114.10899999999999
10
80.77200000000002
20
-112.649
10
80.708500000000001
20
-111.82299999999999
10
80.644999999999982
20
-110.61700000000002
10
80.700300000000013
20
-36.744400000000006
10
80.722300000000018
20
-36.528799999999997
10
80.7834
20
-36.331600000000002
10
80.880200000000002
20
-36.153199999999998
10
81.008300000000006
20
-35.997900000000001
10
81.16370000000002
20
-35.869700000000002
10
81.342100000000016
20
-35.773000000000003
10
81.539199999999994
20
-35.711799999999997
10
81.754400000000004
20
-35.690300000000001
10
171.70400000000001
20
-35.686999999999998
10
217.79600000000002
20
-42.621400000000008
10
218.51200000000003
20
-42.9664
10
219.13300000000004
20
-43.510199999999998
10
219.50200000000001
20
-44.145200000000003
10
219.70500000000001
20
-44.856400000000001
10
219.70500000000001
20
-119.685
10
219.66700000000003
20
-119.999
10
219.58000000000001
20
-120.28
10
219.44200000000001
20
-120.535
10
219.25899999999999
20
-120.75700000000001
10
219.03700000000001
20
-120.94000000000001
10
218.78200000000004
20
-121.078
10
218.5
20
-121.166
10
218.18100000000001
20
-121.194
10
175.71899999999999
20
-121.194
10
175.01400000000001
20
-121.265
10
174.35599999999999
20
-121.468
10
173.762
20
-121.791
10
173.244
20
-122.21800000000002
10
172.81700000000001
20
-122.73600000000002
10
172.49400000000003
20
-123.33100000000002
10
172.28999999999999
20
-123.98800000000003
10
172.19400000000002
20
-124.696
10
172.19300000000001
20
-134.428
10
172.16300000000001
20
-134.708
10
172.07499999999996
20
-134.989
0
LWPOLYLINE
5
129
100
AcDbEntity
8
0
100
AcDbPolyline
90
4
70
1
43
0.0
10
145.5
20
-53.210000000000008
10
159.5
20
-53.210000000000008
10
159.5
20
-39.210000000000001
10
145.5
20
-39.210000000000001
0
LWPOLYLINE
5
130
100
AcDbEntity
8
0
100
AcDbPolyline
90
4
70
1
43
0.0
10
197.60000000000002
20
-45.400000000000006
10
183.59999999999999
20
-45.400000000000006
10
183.59999999999999
20
-59.400000000000013
10
197.60000000000002
20
-59.400000000000013
0
LWPOLYLINE
5
131
100
AcDbEntity
8
0
100
AcDbPolyline
90
4
70
1
43
0.0
10
107.73337782649108
20
-128.60967782649107
10
100.73337782649106
20
-116.48532217350892
10
88.609022173508947
20
-123.48532217350893
10
95.609022173508933
20
-135.60967782649107
0
LWPOLYLINE
5
132
100
AcDbEntity
8
0
100
AcDbPolyline
90
4
70
1
43
0.0
10
202.65000000000001
20
-118.05
10
216.65000000000003
20
-118.05
10
216.65000000000003
20
-104.05000000000001
10
202.65000000000001
20
-104.05000000000001
0
LWPOLYLINE
5
133
100
AcDbEntity
8
0
100
AcDbPolyline
90
4
70
1
43
0.0
10
154.94999999999999
20
-130.79999999999998
10
168.94999999999996
20
-130.79999999999998
10
168.94999999999996
20
-116.79999999999998
10
154.94999999999999
20
-116.79999999999998
0
LWPOLYLINE
5
134
100
AcDbEntity
8
0
100
AcDbPolyline
90
4
70
1
43
0.0
10
121.40000000000001
20
-95.099999999999994
10
121.40000000000001
20
-81.09999999999998
10
107.40000000000002
20
-81.09999999999998
10
107.40000000000002
20
-95.099999999999994
0
CIRCLE
5
135
100
AcDbEntity
8
0
100
AcDbCircle
10
199.69999999999999
20
-61.799999999999997
30
0
40
1.3500000000000001
210
0
220
0
230
1
0
LWPOLYLINE
5
136
100
AcDbEntity
8
0
100
AcDbPolyline
90
4
70
1
43
0.0
10
106.40000000000002
20
-61.050000000000004
10
106.40000000000002
20
-77.049999999999983
10
122.40000000000001
20
-77.049999999999983
10
122.40000000000001
20
-61.050000000000004
0
LWPOLYLINE
5
137
100
AcDbEntity
8
0
100
AcDbPolyline
90
4
70
1
43
0.0
10
122.40000000000001
20
-42
10
106.40000000000002
20
-42
10
106.40000000000002
20
-58
10
122.40000000000001
20
-58
0
LWPOLYLINE
5
138
100
AcDbEntity
8
0
100
AcDbPolyline
90
4
70
1
43
0.0
10
125.45000000000002
20
-39.600000000000016
10
125.45000000000002
20
-55.600000000000009
10
141.44999999999999
20
-55.600000000000009
10
141.44999999999999
20
-39.600000000000016
0
LWPOLYLINE
5
139
100
AcDbEntity
8
0
100
AcDbPolyline
90
4
70
1
43
0.0
10
144.5
20
-38.210000000000001
10
144.5
20
-54.210000000000001
10
160.5
20
-54.210000000000001
10
160.5
20
-38.210000000000001
0
LWPOLYLINE
5
140
100
AcDbEntity
8
0
100
AcDbPolyline
90
4
70
1
43
0.0
10
163.55000000000001
20
-39.600000000000016
10
163.55000000000001
20
-55.600000000000009
10
179.55000000000001
20
-55.600000000000009
10
179.55000000000001
20
-39.600000000000016
0
LWPOLYLINE
5
141
100
AcDbEntity
8
0
100
AcDbPolyline
90
4
70
1
43
0.0
10
182.59999999999997
20
-60.400000000000006
10
198.60000000000002
20
-60.400000000000006
10
198.60000000000002
20
-44.400000000000013
10
182.59999999999997
20
-44.400000000000013
0
LWPOLYLINE
5
142
100
AcDbEntity
8
0
100
AcDbPolyline
90
4
70
1
43
0.0
10
201.64999999999998
20
-61.899999999999991
10
217.65000000000003
20
-61.899999999999991
10
217.65000000000003
20
-45.900000000000006
10
201.64999999999998
20
-45.900000000000006
0
LWPOLYLINE
5
143
100
AcDbEntity
8
0
100
AcDbPolyline
90
4
70
1
43
0.0
10
125.45000000000002
20
-74.650000000000006
10
141.44999999999999
20
-74.650000000000006
10
141.44999999999999
20
-58.65000000000002
10
125.45000000000002
20
-58.65000000000002
0
LWPOLYLINE
5
144
100
AcDbEntity
8
0
100
AcDbPolyline
90
4
70
1
43
0.0
10
144.5
20
-73.259999999999991
10
160.5
20
-73.259999999999991
10
160.5
20
-57.259999999999991
10
144.5
20
-57.259999999999991
0
LWPOLYLINE
5
145
100
AcDbEntity
8
0
100
AcDbPolyline
90
4
70
1
43
0.0
10
163.55000000000001
20
-58.65000000000002
10
163.55000000000001
20
-74.650000000000006
10
179.55000000000001
20
-74.650000000000006
10
179.55000000000001
20
-58.65000000000002
0
LWPOLYLINE
5
146
100
AcDbEntity
8
0
100
AcDbPolyline
90
4
70
1
43
0.0
10
198.60000000000002
20
-63.449999999999996
10
182.59999999999997
20
-63.449999999999996
10
182.59999999999997
20
-79.450000000000003
10
198.60000000000002
20
-79.450000000000003
0
LWPOLYLINE
5
147
100
AcDbEntity
8
0
100
AcDbPolyline
90
4
70
1
43
0.0
10
106.39999998509886
20
-96.100000014901156
10
122.40000001490117
20
-96.100000014901156
10
122.40000001490117
20
-80.099999985098819
10
106.39999998509886
20
-80.099999985098819
0
LWPOLYLINE
5
148
100
AcDbEntity
8
0
100
AcDbPolyline
90
4
70
1
43
0.0
10
125.44999998509886
20
-93.700000014901178
10
141.45000001490115
20
-93.700000014901178
10
141.45000001490115
20
-77.699999985098856
10
125.44999998509886
20
-77.699999985098856
0
LWPOLYLINE
5
149
100
AcDbEntity
8
0
100
AcDbPolyline
90
4
70
1
43
0.0
10
144.49999998509884
20
-92.310000014901163
10
160.50000001490119
20
-92.310000014901163
10
160.50000001490119
20
-76.309999985098841
10
144.49999998509884
20
-76.309999985098841
0
LWPOLYLINE
5
150
100
AcDbEntity
8
0
100
AcDbPolyline
90
4
70
1
43
0.0
10
179.55000001490117
20
-93.700000014901178
10
179.55000001490117
20
-77.699999985098856
10
163.54999998509885
20
-77.699999985098856
10
163.54999998509885
20
-93.700000014901178
0
LWPOLYLINE
5
151
100
AcDbEntity
8
0
100
AcDbPolyline
90
4
70
1
43
0.0
10
198.60000001490118
20
-98.500000014901161
10
198.60000001490118
20
-82.499999985098839
10
182.59999998509883
20
-82.499999985098839
10
182.59999998509883
20
-98.500000014901161
0
LWPOLYLINE
5
152
100
AcDbEntity
8
0
100
AcDbPolyline
90
4
70
1
43
0.0
10
217.6500000149012
20
-80.950000014901178
10
217.6500000149012
20
-64.949999985098827
10
201.64999998509884
20
-64.949999985098827
10
201.64999998509884
20
-80.950000014901178
0
LWPOLYLINE
5
153
100
AcDbEntity
8
0
100
AcDbPolyline
90
4
70
1
43
0.0
10
201.64999998509884
20
-100.00000001490116
10
217.6500000149012
20
-100.00000001490116
10
217.6500000149012
20
-83.999999985098839
10
201.64999998509884
20
-83.999999985098839
0
LWPOLYLINE
5
154
100
AcDbEntity
8
0
100
AcDbPolyline
90
4
70
1
43
0.0
10
201.64999998509884
20
-119.05000001490116
10
217.6500000149012
20
-119.05000001490116
10
217.6500000149012
20
-103.04999998509885
10
201.64999998509884
20
-103.04999998509885
0
LWPOLYLINE
5
155
100
AcDbEntity
8
0
100
AcDbPolyline
90
4
70
1
43
0.0
10
182.59999998509883
20
-117.55000001490117
10
198.60000001490118
20
-117.55000001490117
10
198.60000001490118
20
-101.54999998509885
10
182.59999998509883
20
-101.54999998509885
0
LWPOLYLINE
5
156
100
AcDbEntity
8
0
100
AcDbPolyline
90
4
70
1
43
0.0
10
163.54999998509885
20
-112.75000001490116
10
179.55000001490117
20
-112.75000001490116
10
179.55000001490117
20
-96.749999985098839
10
163.54999998509885
20
-96.749999985098839
0
LWPOLYLINE
5
157
100
AcDbEntity
8
0
100
AcDbPolyline
90
4
70
1
43
0.0
10
160.50000001490119
20
-111.36000001490117
10
160.50000001490119
20
-95.359999985098852
10
144.49999998509884
20
-95.359999985098852
10
144.49999998509884
20
-111.36000001490117
0
LWPOLYLINE
5
158
100
AcDbEntity
8
0
100
AcDbPolyline
90
4
70
1
43
0.0
10
141.45000001490115
20
-112.75000001490116
10
141.45000001490115
20
-96.749999985098839
10
125.44999998509886
20
-96.749999985098839
10
125.44999998509886
20
-112.75000001490116
0
LWPOLYLINE
5
159
100
AcDbEntity
8
0
100
AcDbPolyline
90
4
70
1
43
0.0
10
106.39999998509886
20
-115.15000001490117
10
122.40000001490117
20
-115.15000001490117
10
122.40000001490117
20
-99.149999985098844
10
106.39999998509886
20
-99.149999985098844
0
LWPOLYLINE
5
160
100
AcDbEntity
8
0
100
AcDbPolyline
90
4
70
1
43
0.0
10
82.474799985098826
20
-106.28515001490115
10
98.474800014901149
20
-106.28515001490115
10
98.474800014901149
20
-90.285149985098826
10
82.474799985098826
20
-90.285149985098826
0
LWPOLYLINE
5
161
100
AcDbEntity
8
0
100
AcDbPolyline
90
4
70
1
43
0.0
10
95.242996764270288
20
-136.97570325063089
10
109.09940325063089
20
-128.97570323572972
10
101.09940323572971
20
-115.11929674936911
10
87.242996749369141
20
-123.11929676427029
0
LWPOLYLINE
5
162
100
AcDbEntity
8
0
100
AcDbPolyline
90
4
70
1
43
0.0
10
131.85000001490118
20
-134.20000001490115
10
131.85000001490118
20
-118.19999998509886
10
115.84999998509886
20
-118.19999998509886
10
115.84999998509886
20
-134.20000001490115
0
LWPOLYLINE
5
163
100
AcDbEntity
8
0
100
AcDbPolyline
90
4
70
1
43
0.0
10
150.89800001490116
20
-132.82800001490116
10
150.89800001490116
20
-116.82799998509886
10
134.89799998509883
20
-116.82799998509886
10
134.89799998509883
20
-132.82800001490116
0
LWPOLYLINE
5
164
100
AcDbEntity
8
0
100
AcDbPolyline
90
4
70
1
43
0.0
10
169.95000001490112
20
-131.80000001490114
10
169.95000001490112
20
-115.79999998509882
10
153.94999998509883
20
-115.79999998509882
10
153.94999998509883
20
-131.80000001490114
0
LWPOLYLINE
5
165
100
AcDbEntity
8
0
100
AcDbPolyline
90
4
70
1
43
0.0
10
88.030000119209291
20
-68.0899998807907
10
95.229999880790714
20
-68.0899998807907
10
95.229999880790714
20
-43.39000011920929
10
88.030000119209291
20
-43.39000011920929
0
ENDSEC
0
SECTION
2
OBJECTS
0
DICTIONARY
5
C
100
AcDbDictionary
3
ACAD_GROUP
350
D
3
ACAD_MLINESTYLE
350
17
0
DICTIONARY
5
D
100
AcDbDictionary
0
DICTIONARY
5
1A
330
C
100
AcDbDictionary
0
DICTIONARY
5
17
100
AcDbDictionary
0
ENDSEC
0
EOF
