0
SECTION
2
HEADER
9
$INSUNITS
70
4
9
$ACADVER
1
AC1014
9
$HANDSEED
5
FFFF
0
ENDSEC
0
SECTION
2
TABLES
0
TABLE
2
VPORT
5
8
100
AcDbSymbolTable
0
ENDTAB
0
TABLE
2
LTYPE
5
5
100
AcDbSymbolTable
0
LTYPE
5
14
100
AcDbSymbolTableRecord
100
AcDbLinetypeTableRecord
2
BYBLOCK
70
0
0
LTYPE
5
15
100
AcDbSymbolTableRecord
100
AcDbLinetypeTableRecord
2
BYLAYER
70
0
0
ENDTAB
0
TABLE
2
LAYER
5
2
100
AcDbSymbolTable
70
2
0
LAYER
5
50
100
AcDbSymbolTableRecord
100
AcDbLayerTableRecord
2
0
70
0
6
CONTINUOUS
0
ENDTAB
0
TABLE
2
STYLE
5
3
100
AcDbSymbolTable
70
1
0
STYLE
5
11
100
AcDbSymbolTableRecord
100
AcDbTextStyleTableRecord
2
STANDARD
70
0
0
ENDTAB
0
TABLE
2
VIEW
5
6
100
AcDbSymbolTable
70
0
0
ENDTAB
0
TABLE
2
UCS
5
7
100
AcDbSymbolTable
70
0
0
ENDTAB
0
TABLE
2
APPID
5
9
100
AcDbSymbolTable
70
2
0
APPID
5
12
100
AcDbSymbolTableRecord
100
AcDbRegAppTableRecord
2
ACAD
70
0
0
ENDTAB
0
TABLE
2
DIMSTYLE
5
A
100
AcDbSymbolTable
70
1
0
ENDTAB
0
TABLE
2
BLOCK_RECORD
5
1
100
AcDbSymbolTable
70
1
0
BLOCK_RECORD
5
1F
100
AcDbSymbolTableRecord
100
AcDbBlockTableRecord
2
*MODEL_SPACE
0
BLOCK_RECORD
5
1B
100
AcDbSymbolTableRecord
100
AcDbBlockTableRecord
2
*PAPER_SPACE
0
ENDTAB
0
ENDSEC
0
SECTION
2
BLOCKS
0
BLOCK
5
20
100
AcDbEntity
100
AcDbBlockBegin
2
*MODEL_SPACE
0
ENDBLK
5
21
100
AcDbEntity
100
AcDbBlockEnd
0
BLOCK
5
1C
100
AcDbEntity
100
AcDbBlockBegin
2
*PAPER_SPACE
0
ENDBLK
5
1D
100
AcDbEntity
100
AcDbBlockEnd
0
ENDSEC
0
SECTION
2
ENTITIES
0
LWPOLYLINE
5
100
100
AcDbEntity
8
0
100
AcDbPolyline
90
51
70
1
43
0.0
10
171.04362228119155
20
-134.75562228119153
10
170.97075946336878
20
-134.81568487426165
10
170.88598444087498
20
-134.86156312172886
10
170.79521022461446
20
-134.88999063429446
10
170.64361578149018
20
-134.90499998509884
10
110.05141620689372
20
-134.90499998509884
10
97.316842186785379
20
-142.27742688653362
10
82.871984483759491
20
-117.21264646540882
10
82.366856930394604
20
-116.06462929867043
10
82.127762888862677
20
-115.15379485473923
10
81.890439702601313
20
-113.96717892343246
10
81.76867317369522
20
-112.56734323679541
10
81.706482527432058
20
-111.75837514524642
10
81.645019709253162
20
-110.59106555904546
10
81.700261921369886
20
-36.795661602184566
10
81.707011933352618
20
-36.729511484753779
10
81.709401466725282
20
-36.721799275570802
10
81.713085617394071
20
-36.715009477230772
10
81.718677675823201
20
-36.708230034029782
10
81.72537060284121
20
-36.702708584585082
10
81.732359456267133
20
-36.698920343966883
10
81.739197238185
20
-36.696797197070005
10
81.804247796819865
20
-36.69029818679747
10
171.62921568086486
20
-36.687002759202265
10
217.49793067884445
20
-43.587810215636999
10
217.95546546128094
20
-43.808270411084742
10
218.35079812841045
20
-44.154457052606581
10
218.57466595144268
20
-44.539703848339435
10
218.70499998509885
20
-44.99632239383849
10
218.70499998509885
20
-119.6247103873452
10
218.68507424755293
20
-119.78935990285663
10
218.65378377102402
20
-119.89042454543829
10
218.60868487426174
20
-119.97375946336867
10
218.54862228119151
20
-120.04662228119152
10
218.47575946336883
20
-120.10668487426166
10
218.39143347398502
20
-120.15232011557524
10
218.30509391394344
20
-120.17926295700664
10
218.1371970581786
20
-120.19399998509884
10
175.66877242439946
20
-120.19399998509884
10
174.81453295597302
20
-120.28002977553612
10
173.96590230148956
20
-120.54184136042994
10
173.1999788419954
20
-120.95832835944785
10
172.53362228119158
20
-121.5076222811915
10
171.98410187494113
20
-122.17425359369209
10
171.56817413017788
20
-122.94043628141388
10
171.31026555337715
20
-123.77105360963955
10
171.19400691970529
20
-124.6284610329696
10
171.19300547404401
20
-134.37453020882998
10
171.17920534186749
20
-134.5033314424779
10
171.14956312172882
20
-134.59798444087505
10
171.10368487426169
20
-134.68275946336882
0
CIRCLE
5
101
100
AcDbEntity
8
0
100
AcDbCircle
10
76.690392570308504
20
-49.977759801457353
30
0
40
4.0000000000000018
210
0
220
0
230
1
0
LWPOLYLINE
5
102
100
AcDbEntity
8
0
100
AcDbPolyline
90
50
70
1
43
0.0
10
80.539213823976027
20
-30.786814088037964
10
81.50516101961459
20
-30.690309140518313
10
172.07792159010367
20
-30.686986278494661
10
219.28634658356998
20
-37.789348993818209
10
221.29467265213054
20
-38.75704800730059
10
223.04400929966909
20
-40.288914784967972
10
224.13867017369512
20
-42.172680787695754
10
224.70500000000001
20
-44.156788041232964
10
224.70500000000001
20
-119.98644805878297
10
224.57662868907681
20
-121.04720047009664
10
224.21108107587119
20
-122.22787724378357
10
223.60857556660511
20
-123.34120264134044
10
222.81088854111499
20
-124.30888854111515
10
221.84320264134055
20
-125.10657556660502
10
220.73483260097561
20
-125.70639935315548
10
219.47453041576125
20
-126.09968514144924
10
218.40001470584377
20
-126.194
10
177.19384610120068
20
-126.194
10
177.19297255527462
20
-134.69534895186578
10
177.08197321736438
20
-135.73134277236144
10
176.70218432240517
20
-136.94407776649211
10
176.10357556660543
20
-138.05020264134021
10
175.30588854111488
20
-139.0178885411153
10
174.33820264134042
20
-139.8155755666051
10
173.23207776649238
20
-140.41418432240522
10
171.99994886196788
20
-140.80004675513885
10
170.93992108886997
20
-140.905
10
111.66291894552032
20
-140.905
10
99.978419473532242
20
-147.66950724626219
10
99.281087977334025
20
-148.02253391199707
10
98.156421318472979
20
-148.35561099433124
10
96.786600891960163
20
-148.44760699342541
10
95.356719807356129
20
-148.15915835964353
10
94.082177566580953
20
-147.53282324912243
10
93.104891580076156
20
-146.6975360811698
10
92.473424799434923
20
-145.88949802063337
10
77.511077647772012
20
-119.92676763925249
10
76.683915418595817
20
-118.04685348203385
10
76.279185628312092
20
-116.5050257095244
10
75.941801560861478
20
-114.8181053722713
10
75.78863420578206
20
-113.05728380994086
10
75.718587437195097
20
-112.14612426895151
10
75.644901528241476
20
-110.74667220284053
10
75.700490467653552
20
-36.4880919928964
10
75.798740406603699
20
-35.525242591184835
10
76.153392735366197
20
-34.380603651218109
10
76.715771975084493
20
-33.344152655704157
10
77.45641167381109
20
-32.446249882774893
10
78.355347027641628
20
-31.704657139138703
10
79.390802747741063
20
-31.143398349152069
0
CIRCLE
5
103
100
AcDbEntity
8
0
100
AcDbCircle
10
76.690392570308504
20
-49.977759801457353
30
0
40
1.9999999999999951
210
0
220
0
230
1
0
CIRCLE
5
104
100
AcDbEntity
8
0
100
AcDbCircle
10
86.179140523857271
20
-132.96489664923661
30
0
40
1.9999999999999858
210
0
220
0
230
1
0
CIRCLE
5
105
100
AcDbEntity
8
0
100
AcDbCircle
10
223.70500000000004
20
-53.900000000000013
30
0
40
3.9999999999999858
210
0
220
0
230
1
0
CIRCLE
5
106
100
AcDbEntity
8
0
100
AcDbCircle
10
223.70500000000004
20
-111.05000000000001
30
0
40
1.9999999999999858
210
0
220
0
230
1
0
CIRCLE
5
107
100
AcDbEntity
8
0
100
AcDbCircle
10
223.70500000000004
20
-111.05000000000001
30
0
40
3.9999999999999858
210
0
220
0
230
1
0
CIRCLE
5
108
100
AcDbEntity
8
0
100
AcDbCircle
10
223.70500000000004
20
-53.900000000000013
30
0
40
1.9999999999999858
210
0
220
0
230
1
0
LWPOLYLINE
5
109
100
AcDbEntity
8
0
100
AcDbPolyline
90
4
70
1
43
0.0
10
121.40000000000001
20
-62.049999999999997
10
107.40000000000002
20
-62.049999999999997
10
107.40000000000002
20
-76.049999999999983
10
121.40000000000001
20
-76.049999999999983
0
LWPOLYLINE
5
110
100
AcDbEntity
8
0
100
AcDbPolyline
90
4
70
1
43
0.0
10
130.85000000000002
20
-119.20000000000002
10
116.85000000000002
20
-119.20000000000002
10
116.85000000000002
20
-133.19999999999999
10
130.85000000000002
20
-133.19999999999999
0
LWPOLYLINE
5
111
100
AcDbEntity
8
0
100
AcDbPolyline
90
4
70
1
43
0.0
10
107.40000000000002
20
-57
10
121.40000000000001
20
-57
10
121.40000000000001
20
-43
10
107.40000000000002
20
-43
0
LWPOLYLINE
5
112
100
AcDbEntity
8
0
100
AcDbPolyline
90
4
70
1
43
0.0
10
98.230000000000004
20
-71.089999999999975
10
98.230000000000004
20
-40.390000000000008
10
85.030000000000001
20
-40.390000000000008
10
85.030000000000001
20
-71.089999999999975
0
LWPOLYLINE
5
113
100
AcDbEntity
8
0
100
AcDbPolyline
90
4
70
1
43
0.0
10
164.55000000000001
20
-97.75
10
164.55000000000001
20
-111.75
10
178.55000000000001
20
-111.75
10
178.55000000000001
20
-97.75
0
LWPOLYLINE
5
114
100
AcDbEntity
8
0
100
AcDbPolyline
90
4
70
1
43
0.0
10
159.5
20
-77.310000000000002
10
145.5
20
-77.310000000000002
10
145.5
20
-91.310000000000002
10
159.5
20
-91.310000000000002
0
LWPOLYLINE
5
115
100
AcDbEntity
8
0
100
AcDbPolyline
90
4
70
1
43
0.0
10
178.55000000000001
20
-54.600000000000009
10
178.55000000000001
20
-40.600000000000016
10
164.55000000000001
20
-40.600000000000016
10
164.55000000000001
20
-54.600000000000009
0
LWPOLYLINE
5
116
100
AcDbEntity
8
0
100
AcDbPolyline
90
4
70
1
43
0.0
10
140.44999999999999
20
-73.650000000000006
10
140.44999999999999
20
-59.650000000000027
10
126.45000000000003
20
-59.650000000000027
10
126.45000000000003
20
-73.650000000000006
0
LWPOLYLINE
5
117
100
AcDbEntity
8
0
100
AcDbPolyline
90
4
70
1
43
0.0
10
216.65000000000006
20
-99
10
216.65000000000006
20
-85
10
202.65000000000001
20
-85
10
202.65000000000001
20
-99
0
LWPOLYLINE
5
118
100
AcDbEntity
8
0
100
AcDbPolyline
90
4
70
1
43
0.0
10
107.40000000000002
20
-100.15000000000001
10
107.40000000000002
20
-114.15000000000001
10
121.40000000000001
20
-114.15000000000001
10
121.40000000000001
20
-100.15000000000001
0
LWPOLYLINE
5
119
100
AcDbEntity
8
0
100
AcDbPolyline
90
4
70
1
43
0.0
10
135.898
20
-117.82800000000002
10
135.898
20
-131.828
10
149.898
20
-131.828
10
149.898
20
-117.82800000000002
0
LWPOLYLINE
5
120
100
AcDbEntity
8
0
100
AcDbPolyline
90
4
70
1
43
0.0
10
140.44999999999999
20
-40.600000000000016
10
126.45000000000003
20
-40.600000000000016
10
126.45000000000003
20
-54.600000000000009
10
140.44999999999999
20
-54.600000000000009
0
LWPOLYLINE
5
121
100
AcDbEntity
8
0
100
AcDbPolyline
90
4
70
1
43
0.0
10
216.65000000000006
20
-60.899999999999999
10
216.65000000000006
20
-46.900000000000013
10
202.65000000000001
20
-46.900000000000013
10
202.65000000000001
20
-60.899999999999999
0
LWPOLYLINE
5
122
100
AcDbEntity
8
0
100
AcDbPolyline
90
4
70
1
43
0.0
10
140.44999999999999
20
-78.700000000000017
10
126.45000000000003
20
-78.700000000000017
10
126.45000000000003
20
-92.700000000000017
10
140.44999999999999
20
-92.700000000000017
0
LWPOLYLINE
5
123
100
AcDbEntity
8
0
100
AcDbPolyline
90
4
70
1
43
0.0
10
145.5
20
-72.259999999999977
10
159.5
20
-72.259999999999977
10
159.5
20
-58.259999999999998
10
145.5
20
-58.259999999999998
0
LWPOLYLINE
5
124
100
AcDbEntity
8
0
100
AcDbPolyline
90
4
70
1
43
0.0
10
164.55000000000001
20
-73.650000000000006
10
178.55000000000001
20
-73.650000000000006
10
178.55000000000001
20
-59.650000000000027
10
164.55000000000001
20
-59.650000000000027
0
LWPOLYLINE
5
125
100
AcDbEntity
8
0
100
AcDbPolyline
90
4
70
1
43
0.0
10
197.60000000000002
20
-78.450000000000003
10
197.60000000000002
20
-64.449999999999989
10
183.59999999999999
20
-64.449999999999989
10
183.59999999999999
20
-78.450000000000003
0
LWPOLYLINE
5
126
100
AcDbEntity
8
0
100
AcDbPolyline
90
4
70
1
43
0.0
10
197.60000000000002
20
-102.55000000000001
10
183.59999999999999
20
-102.55000000000001
10
183.59999999999999
20
-116.55000000000001
10
197.60000000000002
20
-116.55000000000001
0
LWPOLYLINE
5
127
100
AcDbEntity
8
0
100
AcDbPolyline
90
4
70
1
43
0.0
10
83.474800000000016
20
-105.28515
10
97.474800000000016
20
-105.28515
10
97.474800000000016
20
-91.285149999999987
10
83.474800000000016
20
-91.285149999999987
0
LWPOLYLINE
5
128
100
AcDbEntity
8
0
100
AcDbPolyline
90
4
70
1
43
0.0
10
183.59999999999999
20
-83.5
10
183.59999999999999
20
-97.5
10
197.60000000000002
20
-97.5
10
197.60000000000002
20
-83.5
0
LWPOLYLINE
5
129
100
AcDbEntity
8
0
100
AcDbPolyline
90
4
70
1
43
0.0
10
145.5
20
-96.360000000000014
10
145.5
20
-110.36000000000001
10
159.5
20
-110.36000000000001
10
159.5
20
-96.360000000000014
0
ARC
5
130
100
AcDbEntity
8
0
100
AcDbCircle
10
76.690392570308504
20
-49.977759801457353
30
0
40
8.9999999999999982
210
0
220
0
230
1
100
AcDbArc
50
96.336479393509705
51
263.57773897662418
0
ARC
5
131
100
AcDbEntity
8
0
100
AcDbCircle
10
223.70500000000004
20
-111.05000000000001
30
0
40
8.9999999999999964
210
0
220
0
230
1
100
AcDbArc
50
-83.626778203287088
51
83.620629791557192
0
ARC
5
132
100
AcDbEntity
8
0
100
AcDbCircle
10
86.179140523857271
20
-132.96489664923661
30
0
40
9.0000000000000018
210
0
220
0
230
1
100
AcDbArc
50
126.33426015383604
51
293.57551973695001
0
ARC
5
133
100
AcDbEntity
8
0
100
AcDbCircle
10
223.70500000000004
20
-53.900000000000013
30
0
40
9
210
0
220
0
230
1
100
AcDbArc
50
-83.620629791557235
51
83.620629791557192
0
CIRCLE
5
134
100
AcDbEntity
8
0
100
AcDbCircle
10
86.179140523857271
20
-132.96489664923661
30
0
40
3.9999999999999902
210
0
220
0
230
1
0
LWPOLYLINE
5
135
100
AcDbEntity
8
0
100
AcDbPolyline
90
4
70
1
43
0.0
10
144.49999998509884
20
-92.310000014901163
10
160.50000001490119
20
-92.310000014901163
10
160.50000001490119
20
-76.309999985098855
10
144.49999998509884
20
-76.309999985098855
0
LWPOLYLINE
5
136
100
AcDbEntity
8
0
100
AcDbPolyline
90
4
70
1
43
0.0
10
182.59999998509883
20
-98.500000014901161
10
198.60000001490121
20
-98.500000014901161
10
198.60000001490121
20
-82.499999985098853
10
182.59999998509883
20
-82.499999985098853
0
LWPOLYLINE
5
137
100
AcDbEntity
8
0
100
AcDbPolyline
90
4
70
1
43
0.0
10
125.44999998509887
20
-93.700000014901178
10
141.45000001490115
20
-93.700000014901178
10
141.45000001490115
20
-77.699999985098856
10
125.44999998509887
20
-77.699999985098856
0
LWPOLYLINE
5
138
100
AcDbEntity
8
0
100
AcDbPolyline
90
4
70
1
43
0.0
10
163.55000000000001
20
-58.65000000000002
10
163.55000000000001
20
-74.650000000000006
10
179.55000000000001
20
-74.650000000000006
10
179.55000000000001
20
-58.65000000000002
0
LWPOLYLINE
5
139
100
AcDbEntity
8
0
100
AcDbPolyline
90
4
70
1
43
0.0
10
179.55000001490117
20
-77.699999985098856
10
163.54999998509885
20
-77.699999985098856
10
163.54999998509885
20
-93.700000014901178
10
179.55000001490117
20
-93.700000014901178
0
LWPOLYLINE
5
140
100
AcDbEntity
8
0
100
AcDbPolyline
90
4
70
1
43
0.0
10
217.65000001490122
20
-100.00000001490116
10
217.65000001490122
20
-83.999999985098853
10
201.64999998509884
20
-83.999999985098853
10
201.64999998509884
20
-100.00000001490116
0
LWPOLYLINE
5
141
100
AcDbEntity
8
0
100
AcDbPolyline
90
4
70
1
43
0.0
10
198.59999999999999
20
-63.450000000000003
10
182.60000000000002
20
-63.450000000000003
10
182.60000000000002
20
-79.450000000000003
10
198.59999999999999
20
-79.450000000000003
0
LWPOLYLINE
5
142
100
AcDbEntity
8
0
100
AcDbPolyline
90
4
70
1
43
0.0
10
201.64999998509884
20
-80.950000014901192
10
217.65000001490122
20
-80.950000014901192
10
217.65000001490122
20
-64.949999985098813
10
201.64999998509884
20
-64.949999985098813
0
LWPOLYLINE
5
143
100
AcDbEntity
8
0
100
AcDbPolyline
90
4
70
1
43
0.0
10
217.65000001490122
20
-119.05000001490116
10
217.65000001490122
20
-103.04999998509885
10
201.64999998509884
20
-103.04999998509885
10
201.64999998509884
20
-119.05000001490116
0
LWPOLYLINE
5
144
100
AcDbEntity
8
0
100
AcDbPolyline
90
4
70
1
43
0.0
10
198.60000001490121
20
-101.54999998509885
10
182.59999998509883
20
-101.54999998509885
10
182.59999998509883
20
-117.55000001490117
10
198.60000001490121
20
-117.55000001490117
0
LWPOLYLINE
5
145
100
AcDbEntity
8
0
100
AcDbPolyline
90
4
70
1
43
0.0
10
106.39999998509886
20
-96.100000014901156
10
122.40000001490117
20
-96.100000014901156
10
122.40000001490117
20
-80.099999985098833
10
106.39999998509886
20
-80.099999985098833
0
LWPOLYLINE
5
146
100
AcDbEntity
8
0
100
AcDbPolyline
90
4
70
1
43
0.0
10
163.54999998509885
20
-112.75000001490116
10
179.55000001490117
20
-112.75000001490116
10
179.55000001490117
20
-96.749999985098867
10
163.54999998509885
20
-96.749999985098867
0
LWPOLYLINE
5
147
100
AcDbEntity
8
0
100
AcDbPolyline
90
4
70
1
43
0.0
10
144.49999998509884
20
-95.359999985098852
10
144.49999998509884
20
-111.36000001490117
10
160.50000001490119
20
-111.36000001490117
10
160.50000001490119
20
-95.359999985098852
0
LWPOLYLINE
5
148
100
AcDbEntity
8
0
100
AcDbPolyline
90
4
70
1
43
0.0
10
141.45000001490115
20
-96.749999985098867
10
125.44999998509887
20
-96.749999985098867
10
125.44999998509887
20
-112.75000001490116
10
141.45000001490115
20
-112.75000001490116
0
LWPOLYLINE
5
149
100
AcDbEntity
8
0
100
AcDbPolyline
90
4
70
1
43
0.0
10
160.5
20
-73.259999999999977
10
160.5
20
-57.259999999999991
10
144.5
20
-57.259999999999991
10
144.5
20
-73.259999999999977
0
LWPOLYLINE
5
150
100
AcDbEntity
8
0
100
AcDbPolyline
90
4
70
1
43
0.0
10
106.39999998509886
20
-115.15000001490117
10
122.40000001490117
20
-115.15000001490117
10
122.40000001490117
20
-99.149999985098844
10
106.39999998509886
20
-99.149999985098844
0
LWPOLYLINE
5
151
100
AcDbEntity
8
0
100
AcDbPolyline
90
58
70
1
43
0.0
10
80.700300000000013
20
-36.744400000000013
10
80.722300000000033
20
-36.528799999999997
10
80.7834
20
-36.331600000000002
10
80.880200000000002
20
-36.153199999999998
10
81.008300000000006
20
-35.997900000000001
10
81.16370000000002
20
-35.869700000000002
10
81.342100000000016
20
-35.77300000000001
10
81.53919999999998
20
-35.711799999999997
10
81.754400000000004
20
-35.690300000000001
10
171.70400000000001
20
-35.686999999999998
10
217.79600000000002
20
-42.621400000000015
10
218.51200000000006
20
-42.9664
10
219.13300000000007
20
-43.510199999999998
10
219.50200000000001
20
-44.145200000000003
10
219.70500000000001
20
-44.856400000000001
10
219.70500000000001
20
-119.685
10
219.66700000000003
20
-119.999
10
219.58000000000001
20
-120.28
10
219.44200000000001
20
-120.535
10
219.25899999999999
20
-120.75700000000001
10
219.03700000000001
20
-120.94000000000001
10
218.78200000000007
20
-121.07799999999999
10
218.5
20
-121.166
10
218.18100000000001
20
-121.194
10
175.71899999999999
20
-121.194
10
175.01400000000001
20
-121.265
10
174.35599999999999
20
-121.46799999999999
10
173.762
20
-121.791
10
173.24400000000003
20
-122.21800000000002
10
172.81700000000001
20
-122.73600000000002
10
172.49400000000006
20
-123.33100000000002
10
172.28999999999999
20
-123.98800000000006
10
172.19400000000005
20
-124.696
10
172.19300000000001
20
-134.428
10
172.16300000000001
20
-134.708
10
172.07499999999996
20
-134.989
10
171.93700000000004
20
-135.24400000000003
10
171.75399999999999
20
-135.46600000000001
10
171.53200000000001
20
-135.649
10
171.27700000000004
20
-135.78700000000001
10
170.99600000000007
20
-135.875
10
170.69300000000001
20
-135.905
10
110.31999999999999
20
-135.905
10
97.594800000000035
20
-143.27199999999999
10
97.426900000000018
20
-143.35700000000003
10
97.268200000000007
20
-143.404
10
97.11930000000001
20
-143.41399999999999
10
96.980500000000021
20
-143.386
10
96.852300000000042
20
-143.32300000000001
10
96.735299999999995
20
-143.22300000000001
10
96.629800000000017
20
-143.08799999999999
10
81.978499999999997
20
-117.66500000000001
10
81.419700000000006
20
-116.395
10
81.153000000000034
20
-115.379
10
80.899000000000001
20
-114.10899999999999
10
80.772000000000034
20
-112.649
10
80.708500000000001
20
-111.82299999999999
10
80.644999999999982
20
-110.61700000000002
0
LWPOLYLINE
5
152
100
AcDbEntity
8
0
100
AcDbPolyline
90
4
70
1
43
0.0
10
164.55000000000001
20
-92.700000000000017
10
178.55000000000001
20
-92.700000000000017
10
178.55000000000001
20
-78.700000000000017
10
164.55000000000001
20
-78.700000000000017
0
LWPOLYLINE
5
153
100
AcDbEntity
8
0
100
AcDbPolyline
90
4
70
1
43
0.0
10
140.44999999999999
20
-97.75
10
126.45000000000003
20
-97.75
10
126.45000000000003
20
-111.75
10
140.44999999999999
20
-111.75
0
LWPOLYLINE
5
154
100
AcDbEntity
8
0
100
AcDbPolyline
90
4
70
1
43
0.0
10
216.65000000000006
20
-79.950000000000017
10
216.65000000000006
20
-65.949999999999989
10
202.65000000000001
20
-65.949999999999989
10
202.65000000000001
20
-79.950000000000017
0
LWPOLYLINE
5
155
100
AcDbEntity
8
0
100
AcDbPolyline
90
4
70
1
43
0.0
10
163.55000000000001
20
-55.600000000000016
10
179.55000000000001
20
-55.600000000000016
10
179.55000000000001
20
-39.600000000000016
10
163.55000000000001
20
-39.600000000000016
0
LWPOLYLINE
5
156
100
AcDbEntity
8
0
100
AcDbPolyline
90
4
70
1
43
0.0
10
107.40000000000002
20
-81.09999999999998
10
107.40000000000002
20
-95.099999999999994
10
121.40000000000001
20
-95.099999999999994
10
121.40000000000001
20
-81.09999999999998
0
LWPOLYLINE
5
157
100
AcDbEntity
8
0
100
AcDbPolyline
90
4
70
1
43
0.0
10
106.40000000000002
20
-42
10
106.40000000000002
20
-58.000000000000007
10
122.40000000000002
20
-58.000000000000007
10
122.40000000000002
20
-42
0
LWPOLYLINE
5
158
100
AcDbEntity
8
0
100
AcDbPolyline
90
4
70
1
43
0.0
10
145.5
20
-39.210000000000001
10
145.5
20
-53.210000000000015
10
159.5
20
-53.210000000000015
10
159.5
20
-39.210000000000001
0
LWPOLYLINE
5
159
100
AcDbEntity
8
0
100
AcDbPolyline
90
4
70
1
43
0.0
10
217.65000000000003
20
-61.899999999999991
10
217.65000000000003
20
-45.90000000000002
10
201.65000000000003
20
-45.90000000000002
10
201.65000000000003
20
-61.899999999999991
0
LWPOLYLINE
5
160
100
AcDbEntity
8
0
100
AcDbPolyline
90
4
70
1
43
0.0
10
95.609022173508933
20
-135.60967782649107
10
107.73337782649108
20
-128.60967782649107
10
100.73337782649106
20
-116.48532217350893
10
88.609022173508947
20
-123.48532217350893
0
LWPOLYLINE
5
161
100
AcDbEntity
8
0
100
AcDbPolyline
90
4
70
1
43
0.0
10
141.44999999999999
20
-58.65000000000002
10
125.45000000000002
20
-58.65000000000002
10
125.45000000000002
20
-74.650000000000006
10
141.44999999999999
20
-74.650000000000006
0
LWPOLYLINE
5
162
100
AcDbEntity
8
0
100
AcDbPolyline
90
4
70
1
43
0.0
10
160.5
20
-38.210000000000001
10
144.5
20
-38.210000000000001
10
144.5
20
-54.210000000000001
10
160.5
20
-54.210000000000001
0
LWPOLYLINE
5
163
100
AcDbEntity
8
0
100
AcDbPolyline
90
4
70
1
43
0.0
10
182.60000000000002
20
-60.40000000000002
10
198.59999999999999
20
-60.40000000000002
10
198.59999999999999
20
-44.400000000000013
10
182.60000000000002
20
-44.400000000000013
0
LWPOLYLINE
5
164
100
AcDbEntity
8
0
100
AcDbPolyline
90
4
70
1
43
0.0
10
183.59999999999999
20
-59.400000000000013
10
197.60000000000002
20
-59.400000000000013
10
197.60000000000002
20
-45.40000000000002
10
183.59999999999999
20
-45.40000000000002
0
LWPOLYLINE
5
165
100
AcDbEntity
8
0
100
AcDbPolyline
90
4
70
1
43
0.0
10
122.40000000000002
20
-61.050000000000004
10
106.40000000000002
20
-61.050000000000004
10
106.40000000000002
20
-77.049999999999983
10
122.40000000000002
20
-77.049999999999983
0
LWPOLYLINE
5
166
100
AcDbEntity
8
0
100
AcDbPolyline
90
4
70
1
43
0.0
10
216.65000000000006
20
-118.05
10
216.65000000000006
20
-104.05000000000001
10
202.65000000000001
20
-104.05000000000001
10
202.65000000000001
20
-118.05
0
LWPOLYLINE
5
167
100
AcDbEntity
8
0
100
AcDbPolyline
90
4
70
1
43
0.0
10
125.45000000000002
20
-55.600000000000016
10
141.44999999999999
20
-55.600000000000016
10
141.44999999999999
20
-39.600000000000016
10
125.45000000000002
20
-39.600000000000016
0
LWPOLYLINE
5
168
100
AcDbEntity
8
0
100
AcDbPolyline
90
4
70
1
43
0.0
10
154.94999999999999
20
-130.79999999999998
10
168.94999999999996
20
-130.79999999999998
10
168.94999999999996
20
-116.8
10
154.94999999999999
20
-116.8
0
LWPOLYLINE
5
169
100
AcDbEntity
8
0
100
AcDbPolyline
90
4
70
1
43
0.0
10
82.474799985098812
20
-106.28515001490116
10
98.474800014901177
20
-106.28515001490116
10
98.474800014901177
20
-90.285149985098826
10
82.474799985098812
20
-90.285149985098826
0
LWPOLYLINE
5
170
100
AcDbEntity
8
0
100
AcDbPolyline
90
4
70
1
43
0.0
10
95.229999880790714
20
-68.0899998807907
10
95.229999880790714
20
-43.390000119209297
10
88.030000119209291
20
-43.390000119209297
10
88.030000119209291
20
-68.0899998807907
0
LWPOLYLINE
5
171
100
AcDbEntity
8
0
100
AcDbPolyline
90
4
70
1
43
0.0
10
169.95000001490112
20
-131.80000001490114
10
169.95000001490112
20
-115.79999998509884
10
153.94999998509883
20
-115.79999998509884
10
153.94999998509883
20
-131.80000001490114
0
LWPOLYLINE
5
172
100
AcDbEntity
8
0
100
AcDbPolyline
90
4
70
1
43
0.0
10
131.85000001490118
20
-134.20000001490115
10
131.85000001490118
20
-118.19999998509886
10
115.84999998509886
20
-118.19999998509886
10
115.84999998509886
20
-134.20000001490115
0
LWPOLYLINE
5
173
100
AcDbEntity
8
0
100
AcDbPolyline
90
4
70
1
43
0.0
10
87.242996749369141
20
-123.11929676427029
10
95.242996764270288
20
-136.97570325063089
10
109.09940325063089
20
-128.97570323572972
10
101.09940323572971
20
-115.11929674936914
0
LWPOLYLINE
5
174
100
AcDbEntity
8
0
100
AcDbPolyline
90
4
70
1
43
0.0
10
150.89800001490116
20
-132.82800001490116
10
150.89800001490116
20
-116.82799998509886
10
134.89799998509883
20
-116.82799998509886
10
134.89799998509883
20
-132.82800001490116
0
LWPOLYLINE
5
175
100
AcDbEntity
8
0
100
AcDbPolyline
90
50
70
1
43
0.0
10
218.54117329178501
20
-40.205374496909101
10
219.90333632606522
20
-40.861724003650259
10
221.08850464983462
20
-41.899557392484056
10
221.82033508684754
20
-43.158940393847814
10
222.20500000000001
20
-44.506594020616546
10
222.20500000000001
20
-119.83572402939159
10
222.12181434453842
20
-120.52310023504836
10
221.8955405379356
20
-121.25393862189182
10
221.52528778330262
20
-121.93810132067016
10
221.03494427055739
20
-122.53294427055766
10
220.44010132067032
20
-123.02328778330249
10
219.75841630048785
20
-123.39219967657775
10
218.98726520788063
20
-123.63284257072462
10
218.29050735292199
20
-123.69399999999999
10
174.69410297250749
20
-123.694
10
174.69298627763732
20
-134.56167447593248
10
174.62248660868215
20
-135.21967138618083
10
174.38859216120255
20
-135.96653888324613
10
174.02028778330279
20
-136.64710132067006
10
173.52994427055745
20
-137.24194427055767
10
172.93510132067027
20
-137.73228778330252
10
172.25453888324614
20
-138.10059216120263
10
171.49797443098402
20
-138.3375233775694
10
170.81646054443493
20
-138.405
10
110.99145947276016
20
-138.405
10
98.786609736766025
20
-145.47075362313115
10
98.353993988666915
20
-145.68976695599861
10
97.712310659236564
20
-145.87980549716562
10
96.952950445980093
20
-145.93080349671271
10
96.168609903678032
20
-145.77257917982178
10
95.467238783290526
20
-145.42791162456126
10
94.920095790038076
20
-144.96026804058491
10
94.55161239971747
20
-144.4887490103167
10
79.744788823885969
20
-118.79588381962618
10
79.051807709297918
20
-117.22092674101697
10
78.716092814156028
20
-115.94201285476215
10
78.420400780430739
20
-114.46355268613566
10
78.280317102891061
20
-112.8531419049707
10
78.213543718597563
20
-111.98456213447587
10
78.144950764120736
20
-110.68183610142023
10
78.200395233826782
20
-36.616245996448178
10
78.260520203301866
20
-36.027021295592391
10
78.468396367683098
20
-35.356101825609045
10
78.797985987542233
20
-34.74867632785211
10
79.232355836905569
20
-34.222074941387433
10
79.759523513820824
20
-33.787178569569356
10
80.366451373870547
20
-33.458199174576031
10
81.039206911988018
20
-33.249307044018984
10
81.629780509807347
20
-33.190304570259158
10
171.89096079505185
20
-33.186993139247328
0
ARC
5
176
100
AcDbEntity
8
0
100
AcDbCircle
10
76.690392570308504
20
-49.977759801457353
30
0
40
6.4999999999999947
210
0
220
0
230
1
100
AcDbArc
50
96.336479393509734
51
263.57773897662412
0
ARC
5
177
100
AcDbEntity
8
0
100
AcDbCircle
10
86.179140523857271
20
-132.96489664923661
30
0
40
6.4999999999999982
210
0
220
0
230
1
100
AcDbArc
50
126.33426015383608
51
293.57551973695007
0
ARC
5
178
100
AcDbEntity
8
0
100
AcDbCircle
10
223.70500000000004
20
-53.900000000000013
30
0
40
6.5000000000000044
210
0
220
0
230
1
100
AcDbArc
50
-83.620629791557121
51
83.620629791557647
0
ARC
5
179
100
AcDbEntity
8
0
100
AcDbCircle
10
223.70500000000004
20
-111.05000000000001
30
0
40
6.4999999999999982
210
0
220
0
230
1
100
AcDbArc
50
-83.626778203286932
51
83.620629791557164
0
ENDSEC
0
SECTION
2
OBJECTS
0
DICTIONARY
5
C
100
AcDbDictionary
3
ACAD_GROUP
350
D
3
ACAD_MLINESTYLE
350
17
0
DICTIONARY
5
D
100
AcDbDictionary
0
DICTIONARY
5
1A
330
C
100
AcDbDictionary
0
DICTIONARY
5
17
100
AcDbDictionary
0
ENDSEC
0
EOF
